<mxfile host="app.diagrams.net" modified="2023-11-13T06:46:49.611Z" agent="Mozilla/5.0 (Windows NT 10.0; Win64; x64) AppleWebKit/537.36 (KHTML, like Gecko) Chrome/119.0.0.0 Safari/537.36" etag="Q3fUWciJWdE53ZrLafgw" version="22.1.0" type="github">
  <diagram name="Page-1" id="r73j2ridED8xUcbDZQc5">
    <mxGraphModel dx="2284" dy="1838" grid="1" gridSize="10" guides="1" tooltips="1" connect="1" arrows="1" fold="1" page="1" pageScale="1" pageWidth="850" pageHeight="1100" math="0" shadow="0">
      <root>
        <mxCell id="0" />
        <mxCell id="1" parent="0" />
        <mxCell id="VRv0_hLcXgZbu_qgJ3fP-1" value="" style="group" vertex="1" connectable="0" parent="1">
          <mxGeometry x="1210" y="-1060" width="480" height="1820" as="geometry" />
        </mxCell>
        <mxCell id="VRv0_hLcXgZbu_qgJ3fP-2" value="Start trick" style="ellipse;whiteSpace=wrap;html=1;" vertex="1" parent="VRv0_hLcXgZbu_qgJ3fP-1">
          <mxGeometry x="160" width="120" height="40" as="geometry" />
        </mxCell>
        <mxCell id="VRv0_hLcXgZbu_qgJ3fP-3" value="End trick" style="ellipse;whiteSpace=wrap;html=1;" vertex="1" parent="VRv0_hLcXgZbu_qgJ3fP-1">
          <mxGeometry x="156.25" y="1780" width="120" height="40" as="geometry" />
        </mxCell>
        <mxCell id="VRv0_hLcXgZbu_qgJ3fP-4" value="int score = 0, &lt;br&gt;&amp;nbsp; &amp;nbsp;max = 0,&lt;br&gt;winner;" style="rounded=0;whiteSpace=wrap;html=1;" vertex="1" parent="VRv0_hLcXgZbu_qgJ3fP-1">
          <mxGeometry x="160" y="60" width="120" height="60" as="geometry" />
        </mxCell>
        <mxCell id="VRv0_hLcXgZbu_qgJ3fP-5" style="edgeStyle=orthogonalEdgeStyle;rounded=0;orthogonalLoop=1;jettySize=auto;html=1;exitX=0.5;exitY=1;exitDx=0;exitDy=0;entryX=0.5;entryY=0;entryDx=0;entryDy=0;" edge="1" parent="VRv0_hLcXgZbu_qgJ3fP-1" source="VRv0_hLcXgZbu_qgJ3fP-2" target="VRv0_hLcXgZbu_qgJ3fP-4">
          <mxGeometry relative="1" as="geometry" />
        </mxCell>
        <mxCell id="VRv0_hLcXgZbu_qgJ3fP-6" style="edgeStyle=orthogonalEdgeStyle;rounded=0;orthogonalLoop=1;jettySize=auto;html=1;exitX=1;exitY=0.5;exitDx=0;exitDy=0;" edge="1" parent="VRv0_hLcXgZbu_qgJ3fP-1" source="VRv0_hLcXgZbu_qgJ3fP-7">
          <mxGeometry relative="1" as="geometry">
            <mxPoint x="220" y="790" as="targetPoint" />
            <Array as="points">
              <mxPoint x="480" y="260" />
              <mxPoint x="480" y="770" />
              <mxPoint x="220" y="770" />
            </Array>
          </mxGeometry>
        </mxCell>
        <mxCell id="VRv0_hLcXgZbu_qgJ3fP-7" value="i &amp;lt; 4" style="rhombus;whiteSpace=wrap;html=1;" vertex="1" parent="VRv0_hLcXgZbu_qgJ3fP-1">
          <mxGeometry x="145" y="220" width="150" height="80" as="geometry" />
        </mxCell>
        <mxCell id="VRv0_hLcXgZbu_qgJ3fP-8" style="edgeStyle=orthogonalEdgeStyle;rounded=0;orthogonalLoop=1;jettySize=auto;html=1;exitX=0.5;exitY=1;exitDx=0;exitDy=0;entryX=0.5;entryY=0;entryDx=0;entryDy=0;" edge="1" parent="VRv0_hLcXgZbu_qgJ3fP-1" source="VRv0_hLcXgZbu_qgJ3fP-9" target="VRv0_hLcXgZbu_qgJ3fP-7">
          <mxGeometry relative="1" as="geometry" />
        </mxCell>
        <mxCell id="VRv0_hLcXgZbu_qgJ3fP-9" value="initiate loop&lt;br&gt;i = 0" style="rounded=0;whiteSpace=wrap;html=1;" vertex="1" parent="VRv0_hLcXgZbu_qgJ3fP-1">
          <mxGeometry x="160" y="140" width="120" height="60" as="geometry" />
        </mxCell>
        <mxCell id="VRv0_hLcXgZbu_qgJ3fP-10" style="edgeStyle=orthogonalEdgeStyle;rounded=0;orthogonalLoop=1;jettySize=auto;html=1;exitX=0.5;exitY=1;exitDx=0;exitDy=0;entryX=0.5;entryY=0;entryDx=0;entryDy=0;" edge="1" parent="VRv0_hLcXgZbu_qgJ3fP-1" source="VRv0_hLcXgZbu_qgJ3fP-4" target="VRv0_hLcXgZbu_qgJ3fP-9">
          <mxGeometry relative="1" as="geometry" />
        </mxCell>
        <mxCell id="VRv0_hLcXgZbu_qgJ3fP-11" style="edgeStyle=orthogonalEdgeStyle;rounded=0;orthogonalLoop=1;jettySize=auto;html=1;exitX=1;exitY=0.5;exitDx=0;exitDy=0;entryX=0;entryY=0.5;entryDx=0;entryDy=0;" edge="1" parent="VRv0_hLcXgZbu_qgJ3fP-1" source="VRv0_hLcXgZbu_qgJ3fP-12" target="VRv0_hLcXgZbu_qgJ3fP-7">
          <mxGeometry relative="1" as="geometry" />
        </mxCell>
        <mxCell id="VRv0_hLcXgZbu_qgJ3fP-12" value="increment i" style="rounded=0;whiteSpace=wrap;html=1;" vertex="1" parent="VRv0_hLcXgZbu_qgJ3fP-1">
          <mxGeometry y="230" width="120" height="60" as="geometry" />
        </mxCell>
        <mxCell id="VRv0_hLcXgZbu_qgJ3fP-13" value="if&lt;br&gt;match true &amp;amp;&lt;br&gt;choice &amp;gt; max" style="rhombus;whiteSpace=wrap;html=1;" vertex="1" parent="VRv0_hLcXgZbu_qgJ3fP-1">
          <mxGeometry x="145" y="320" width="150" height="80" as="geometry" />
        </mxCell>
        <mxCell id="VRv0_hLcXgZbu_qgJ3fP-14" style="edgeStyle=orthogonalEdgeStyle;rounded=0;orthogonalLoop=1;jettySize=auto;html=1;exitX=0.5;exitY=1;exitDx=0;exitDy=0;entryX=0.5;entryY=0;entryDx=0;entryDy=0;" edge="1" parent="VRv0_hLcXgZbu_qgJ3fP-1" source="VRv0_hLcXgZbu_qgJ3fP-7" target="VRv0_hLcXgZbu_qgJ3fP-13">
          <mxGeometry relative="1" as="geometry" />
        </mxCell>
        <mxCell id="VRv0_hLcXgZbu_qgJ3fP-15" value="max = choice" style="rounded=0;whiteSpace=wrap;html=1;" vertex="1" parent="VRv0_hLcXgZbu_qgJ3fP-1">
          <mxGeometry x="320" y="330" width="120" height="60" as="geometry" />
        </mxCell>
        <mxCell id="VRv0_hLcXgZbu_qgJ3fP-16" style="edgeStyle=orthogonalEdgeStyle;rounded=0;orthogonalLoop=1;jettySize=auto;html=1;exitX=1;exitY=0.5;exitDx=0;exitDy=0;entryX=0;entryY=0.5;entryDx=0;entryDy=0;" edge="1" parent="VRv0_hLcXgZbu_qgJ3fP-1" source="VRv0_hLcXgZbu_qgJ3fP-13" target="VRv0_hLcXgZbu_qgJ3fP-15">
          <mxGeometry relative="1" as="geometry" />
        </mxCell>
        <mxCell id="VRv0_hLcXgZbu_qgJ3fP-17" value="winner = i" style="rounded=0;whiteSpace=wrap;html=1;" vertex="1" parent="VRv0_hLcXgZbu_qgJ3fP-1">
          <mxGeometry x="320" y="415" width="120" height="60" as="geometry" />
        </mxCell>
        <mxCell id="VRv0_hLcXgZbu_qgJ3fP-18" style="edgeStyle=orthogonalEdgeStyle;rounded=0;orthogonalLoop=1;jettySize=auto;html=1;exitX=0.5;exitY=1;exitDx=0;exitDy=0;entryX=0.5;entryY=0;entryDx=0;entryDy=0;" edge="1" parent="VRv0_hLcXgZbu_qgJ3fP-1" source="VRv0_hLcXgZbu_qgJ3fP-15" target="VRv0_hLcXgZbu_qgJ3fP-17">
          <mxGeometry relative="1" as="geometry" />
        </mxCell>
        <mxCell id="VRv0_hLcXgZbu_qgJ3fP-19" value="if&lt;br&gt;choice &amp;gt; 39&amp;nbsp;" style="rhombus;whiteSpace=wrap;html=1;" vertex="1" parent="VRv0_hLcXgZbu_qgJ3fP-1">
          <mxGeometry x="145" y="520" width="150" height="80" as="geometry" />
        </mxCell>
        <mxCell id="VRv0_hLcXgZbu_qgJ3fP-20" style="edgeStyle=orthogonalEdgeStyle;rounded=0;orthogonalLoop=1;jettySize=auto;html=1;exitX=0.5;exitY=1;exitDx=0;exitDy=0;entryX=0.5;entryY=0;entryDx=0;entryDy=0;" edge="1" parent="VRv0_hLcXgZbu_qgJ3fP-1" source="VRv0_hLcXgZbu_qgJ3fP-13" target="VRv0_hLcXgZbu_qgJ3fP-19">
          <mxGeometry relative="1" as="geometry">
            <mxPoint x="219.5714285714289" y="530" as="targetPoint" />
          </mxGeometry>
        </mxCell>
        <mxCell id="VRv0_hLcXgZbu_qgJ3fP-21" style="edgeStyle=orthogonalEdgeStyle;rounded=0;orthogonalLoop=1;jettySize=auto;html=1;exitX=0.5;exitY=1;exitDx=0;exitDy=0;entryX=0.5;entryY=0;entryDx=0;entryDy=0;" edge="1" parent="VRv0_hLcXgZbu_qgJ3fP-1" source="VRv0_hLcXgZbu_qgJ3fP-17" target="VRv0_hLcXgZbu_qgJ3fP-19">
          <mxGeometry relative="1" as="geometry">
            <mxPoint x="220" y="510" as="targetPoint" />
          </mxGeometry>
        </mxCell>
        <mxCell id="VRv0_hLcXgZbu_qgJ3fP-22" value="score += 1" style="rounded=0;whiteSpace=wrap;html=1;" vertex="1" parent="VRv0_hLcXgZbu_qgJ3fP-1">
          <mxGeometry x="320" y="530" width="120" height="60" as="geometry" />
        </mxCell>
        <mxCell id="VRv0_hLcXgZbu_qgJ3fP-23" style="edgeStyle=orthogonalEdgeStyle;rounded=0;orthogonalLoop=1;jettySize=auto;html=1;exitX=1;exitY=0.5;exitDx=0;exitDy=0;entryX=0;entryY=0.5;entryDx=0;entryDy=0;" edge="1" parent="VRv0_hLcXgZbu_qgJ3fP-1" source="VRv0_hLcXgZbu_qgJ3fP-19" target="VRv0_hLcXgZbu_qgJ3fP-22">
          <mxGeometry relative="1" as="geometry" />
        </mxCell>
        <mxCell id="VRv0_hLcXgZbu_qgJ3fP-24" style="edgeStyle=orthogonalEdgeStyle;rounded=0;orthogonalLoop=1;jettySize=auto;html=1;exitX=0.5;exitY=1;exitDx=0;exitDy=0;" edge="1" parent="VRv0_hLcXgZbu_qgJ3fP-1" source="VRv0_hLcXgZbu_qgJ3fP-25" target="VRv0_hLcXgZbu_qgJ3fP-12">
          <mxGeometry relative="1" as="geometry" />
        </mxCell>
        <mxCell id="VRv0_hLcXgZbu_qgJ3fP-25" value="if &lt;br&gt;choice == 37" style="rhombus;whiteSpace=wrap;html=1;" vertex="1" parent="VRv0_hLcXgZbu_qgJ3fP-1">
          <mxGeometry x="145" y="640" width="150" height="80" as="geometry" />
        </mxCell>
        <mxCell id="VRv0_hLcXgZbu_qgJ3fP-26" style="edgeStyle=orthogonalEdgeStyle;rounded=0;orthogonalLoop=1;jettySize=auto;html=1;exitX=0.5;exitY=1;exitDx=0;exitDy=0;entryX=0.5;entryY=0;entryDx=0;entryDy=0;" edge="1" parent="VRv0_hLcXgZbu_qgJ3fP-1" source="VRv0_hLcXgZbu_qgJ3fP-19" target="VRv0_hLcXgZbu_qgJ3fP-25">
          <mxGeometry relative="1" as="geometry" />
        </mxCell>
        <mxCell id="VRv0_hLcXgZbu_qgJ3fP-27" style="edgeStyle=orthogonalEdgeStyle;rounded=0;orthogonalLoop=1;jettySize=auto;html=1;exitX=1;exitY=0.5;exitDx=0;exitDy=0;entryX=0.5;entryY=0;entryDx=0;entryDy=0;" edge="1" parent="VRv0_hLcXgZbu_qgJ3fP-1" source="VRv0_hLcXgZbu_qgJ3fP-22" target="VRv0_hLcXgZbu_qgJ3fP-25">
          <mxGeometry relative="1" as="geometry" />
        </mxCell>
        <mxCell id="VRv0_hLcXgZbu_qgJ3fP-28" style="edgeStyle=orthogonalEdgeStyle;rounded=0;orthogonalLoop=1;jettySize=auto;html=1;exitX=0.5;exitY=1;exitDx=0;exitDy=0;" edge="1" parent="VRv0_hLcXgZbu_qgJ3fP-1" source="VRv0_hLcXgZbu_qgJ3fP-29">
          <mxGeometry relative="1" as="geometry">
            <mxPoint x="220" y="740" as="targetPoint" />
            <Array as="points">
              <mxPoint x="380" y="740" />
            </Array>
          </mxGeometry>
        </mxCell>
        <mxCell id="VRv0_hLcXgZbu_qgJ3fP-29" value="score += 13" style="rounded=0;whiteSpace=wrap;html=1;" vertex="1" parent="VRv0_hLcXgZbu_qgJ3fP-1">
          <mxGeometry x="320" y="650" width="120" height="60" as="geometry" />
        </mxCell>
        <mxCell id="VRv0_hLcXgZbu_qgJ3fP-30" style="edgeStyle=orthogonalEdgeStyle;rounded=0;orthogonalLoop=1;jettySize=auto;html=1;exitX=1;exitY=0.5;exitDx=0;exitDy=0;entryX=0;entryY=0.5;entryDx=0;entryDy=0;" edge="1" parent="VRv0_hLcXgZbu_qgJ3fP-1" source="VRv0_hLcXgZbu_qgJ3fP-25" target="VRv0_hLcXgZbu_qgJ3fP-29">
          <mxGeometry relative="1" as="geometry" />
        </mxCell>
        <mxCell id="VRv0_hLcXgZbu_qgJ3fP-31" value="cout trick value" style="shape=parallelogram;perimeter=parallelogramPerimeter;whiteSpace=wrap;html=1;fixedSize=1;" vertex="1" parent="VRv0_hLcXgZbu_qgJ3fP-1">
          <mxGeometry x="141.25" y="791" width="157.5" height="60" as="geometry" />
        </mxCell>
        <mxCell id="VRv0_hLcXgZbu_qgJ3fP-32" value="cout trick winner" style="shape=parallelogram;perimeter=parallelogramPerimeter;whiteSpace=wrap;html=1;fixedSize=1;" vertex="1" parent="VRv0_hLcXgZbu_qgJ3fP-1">
          <mxGeometry x="137.5" y="870" width="157.5" height="60" as="geometry" />
        </mxCell>
        <mxCell id="VRv0_hLcXgZbu_qgJ3fP-33" style="edgeStyle=orthogonalEdgeStyle;rounded=0;orthogonalLoop=1;jettySize=auto;html=1;exitX=0.5;exitY=1;exitDx=0;exitDy=0;entryX=0.5;entryY=0;entryDx=0;entryDy=0;" edge="1" parent="VRv0_hLcXgZbu_qgJ3fP-1" source="VRv0_hLcXgZbu_qgJ3fP-31" target="VRv0_hLcXgZbu_qgJ3fP-32">
          <mxGeometry relative="1" as="geometry" />
        </mxCell>
        <mxCell id="VRv0_hLcXgZbu_qgJ3fP-34" value="winner == 0 ?" style="rhombus;whiteSpace=wrap;html=1;" vertex="1" parent="VRv0_hLcXgZbu_qgJ3fP-1">
          <mxGeometry x="141.25" y="950" width="150" height="80" as="geometry" />
        </mxCell>
        <mxCell id="VRv0_hLcXgZbu_qgJ3fP-35" style="edgeStyle=orthogonalEdgeStyle;rounded=0;orthogonalLoop=1;jettySize=auto;html=1;exitX=0.5;exitY=1;exitDx=0;exitDy=0;entryX=0.5;entryY=0;entryDx=0;entryDy=0;" edge="1" parent="VRv0_hLcXgZbu_qgJ3fP-1" source="VRv0_hLcXgZbu_qgJ3fP-32" target="VRv0_hLcXgZbu_qgJ3fP-34">
          <mxGeometry relative="1" as="geometry" />
        </mxCell>
        <mxCell id="VRv0_hLcXgZbu_qgJ3fP-36" value="&lt;font style=&quot;font-size: 10px;&quot;&gt;p[0].order = FIRST&lt;br&gt;p[1].order = SECOND&lt;br&gt;p[2].order = THIRD&lt;br&gt;p[3].order = FOURTH&lt;/font&gt;" style="rounded=0;whiteSpace=wrap;html=1;" vertex="1" parent="VRv0_hLcXgZbu_qgJ3fP-1">
          <mxGeometry x="320" y="960" width="120" height="60" as="geometry" />
        </mxCell>
        <mxCell id="VRv0_hLcXgZbu_qgJ3fP-37" style="edgeStyle=orthogonalEdgeStyle;rounded=0;orthogonalLoop=1;jettySize=auto;html=1;exitX=1;exitY=0.5;exitDx=0;exitDy=0;entryX=0;entryY=0.5;entryDx=0;entryDy=0;" edge="1" parent="VRv0_hLcXgZbu_qgJ3fP-1" source="VRv0_hLcXgZbu_qgJ3fP-34" target="VRv0_hLcXgZbu_qgJ3fP-36">
          <mxGeometry relative="1" as="geometry" />
        </mxCell>
        <mxCell id="VRv0_hLcXgZbu_qgJ3fP-38" value="winner == 1 ?" style="rhombus;whiteSpace=wrap;html=1;" vertex="1" parent="VRv0_hLcXgZbu_qgJ3fP-1">
          <mxGeometry x="141.25" y="1050" width="150" height="80" as="geometry" />
        </mxCell>
        <mxCell id="VRv0_hLcXgZbu_qgJ3fP-39" style="edgeStyle=orthogonalEdgeStyle;rounded=0;orthogonalLoop=1;jettySize=auto;html=1;exitX=0.5;exitY=1;exitDx=0;exitDy=0;entryX=0.5;entryY=0;entryDx=0;entryDy=0;" edge="1" parent="VRv0_hLcXgZbu_qgJ3fP-1" source="VRv0_hLcXgZbu_qgJ3fP-34" target="VRv0_hLcXgZbu_qgJ3fP-38">
          <mxGeometry relative="1" as="geometry" />
        </mxCell>
        <mxCell id="VRv0_hLcXgZbu_qgJ3fP-40" value="winner == 2 ?" style="rhombus;whiteSpace=wrap;html=1;" vertex="1" parent="VRv0_hLcXgZbu_qgJ3fP-1">
          <mxGeometry x="141.25" y="1150" width="150" height="80" as="geometry" />
        </mxCell>
        <mxCell id="VRv0_hLcXgZbu_qgJ3fP-41" style="edgeStyle=orthogonalEdgeStyle;rounded=0;orthogonalLoop=1;jettySize=auto;html=1;exitX=0.5;exitY=1;exitDx=0;exitDy=0;entryX=0.5;entryY=0;entryDx=0;entryDy=0;" edge="1" parent="VRv0_hLcXgZbu_qgJ3fP-1" source="VRv0_hLcXgZbu_qgJ3fP-38" target="VRv0_hLcXgZbu_qgJ3fP-40">
          <mxGeometry relative="1" as="geometry" />
        </mxCell>
        <mxCell id="VRv0_hLcXgZbu_qgJ3fP-42" value="&lt;font style=&quot;font-size: 10px;&quot;&gt;p[1].order = FIRST&lt;br&gt;p[2].order = SECOND&lt;br&gt;p[3].order = THIRD&lt;br&gt;p[0].order = FOURTH&lt;/font&gt;" style="rounded=0;whiteSpace=wrap;html=1;" vertex="1" parent="VRv0_hLcXgZbu_qgJ3fP-1">
          <mxGeometry x="320" y="1060" width="120" height="60" as="geometry" />
        </mxCell>
        <mxCell id="VRv0_hLcXgZbu_qgJ3fP-43" style="edgeStyle=orthogonalEdgeStyle;rounded=0;orthogonalLoop=1;jettySize=auto;html=1;exitX=1;exitY=0.5;exitDx=0;exitDy=0;entryX=0;entryY=0.5;entryDx=0;entryDy=0;" edge="1" parent="VRv0_hLcXgZbu_qgJ3fP-1" source="VRv0_hLcXgZbu_qgJ3fP-38" target="VRv0_hLcXgZbu_qgJ3fP-42">
          <mxGeometry relative="1" as="geometry" />
        </mxCell>
        <mxCell id="VRv0_hLcXgZbu_qgJ3fP-44" value="&lt;font style=&quot;font-size: 10px;&quot;&gt;p[2].order = FIRST&lt;br&gt;p[3].order = SECOND&lt;br&gt;p[0].order = THIRD&lt;br&gt;p[1].order = FOURTH&lt;/font&gt;" style="rounded=0;whiteSpace=wrap;html=1;" vertex="1" parent="VRv0_hLcXgZbu_qgJ3fP-1">
          <mxGeometry x="320" y="1160" width="120" height="60" as="geometry" />
        </mxCell>
        <mxCell id="VRv0_hLcXgZbu_qgJ3fP-45" style="edgeStyle=orthogonalEdgeStyle;rounded=0;orthogonalLoop=1;jettySize=auto;html=1;exitX=1;exitY=0.5;exitDx=0;exitDy=0;entryX=0;entryY=0.5;entryDx=0;entryDy=0;" edge="1" parent="VRv0_hLcXgZbu_qgJ3fP-1" source="VRv0_hLcXgZbu_qgJ3fP-40" target="VRv0_hLcXgZbu_qgJ3fP-44">
          <mxGeometry relative="1" as="geometry" />
        </mxCell>
        <mxCell id="VRv0_hLcXgZbu_qgJ3fP-46" value="&lt;font style=&quot;font-size: 10px;&quot;&gt;p[3].order = FIRST&lt;br&gt;p[0].order = SECOND&lt;br&gt;p[1].order = THIRD&lt;br&gt;p[2].order = FOURTH&lt;/font&gt;" style="rounded=0;whiteSpace=wrap;html=1;" vertex="1" parent="VRv0_hLcXgZbu_qgJ3fP-1">
          <mxGeometry x="320" y="1260" width="120" height="60" as="geometry" />
        </mxCell>
        <mxCell id="VRv0_hLcXgZbu_qgJ3fP-47" value="do nothing" style="ellipse;whiteSpace=wrap;html=1;aspect=fixed;" vertex="1" parent="VRv0_hLcXgZbu_qgJ3fP-1">
          <mxGeometry x="176.25" y="1350" width="80" height="80" as="geometry" />
        </mxCell>
        <mxCell id="VRv0_hLcXgZbu_qgJ3fP-48" style="edgeStyle=orthogonalEdgeStyle;rounded=0;orthogonalLoop=1;jettySize=auto;html=1;exitX=1;exitY=0.5;exitDx=0;exitDy=0;entryX=0;entryY=0.5;entryDx=0;entryDy=0;" edge="1" parent="VRv0_hLcXgZbu_qgJ3fP-1" source="VRv0_hLcXgZbu_qgJ3fP-50" target="VRv0_hLcXgZbu_qgJ3fP-46">
          <mxGeometry relative="1" as="geometry" />
        </mxCell>
        <mxCell id="VRv0_hLcXgZbu_qgJ3fP-49" style="edgeStyle=orthogonalEdgeStyle;rounded=0;orthogonalLoop=1;jettySize=auto;html=1;exitX=0.5;exitY=1;exitDx=0;exitDy=0;" edge="1" parent="VRv0_hLcXgZbu_qgJ3fP-1" source="VRv0_hLcXgZbu_qgJ3fP-50" target="VRv0_hLcXgZbu_qgJ3fP-47">
          <mxGeometry relative="1" as="geometry" />
        </mxCell>
        <mxCell id="VRv0_hLcXgZbu_qgJ3fP-50" value="winner == 2 ?" style="rhombus;whiteSpace=wrap;html=1;" vertex="1" parent="VRv0_hLcXgZbu_qgJ3fP-1">
          <mxGeometry x="141.25" y="1250" width="150" height="80" as="geometry" />
        </mxCell>
        <mxCell id="VRv0_hLcXgZbu_qgJ3fP-51" style="edgeStyle=orthogonalEdgeStyle;rounded=0;orthogonalLoop=1;jettySize=auto;html=1;exitX=0.5;exitY=1;exitDx=0;exitDy=0;entryX=0.5;entryY=0;entryDx=0;entryDy=0;" edge="1" parent="VRv0_hLcXgZbu_qgJ3fP-1" source="VRv0_hLcXgZbu_qgJ3fP-40" target="VRv0_hLcXgZbu_qgJ3fP-50">
          <mxGeometry relative="1" as="geometry" />
        </mxCell>
        <mxCell id="VRv0_hLcXgZbu_qgJ3fP-52" value="i &amp;lt; 4" style="rhombus;whiteSpace=wrap;html=1;" vertex="1" parent="VRv0_hLcXgZbu_qgJ3fP-1">
          <mxGeometry x="141.25" y="1470.5" width="150" height="80" as="geometry" />
        </mxCell>
        <mxCell id="VRv0_hLcXgZbu_qgJ3fP-53" style="edgeStyle=orthogonalEdgeStyle;rounded=0;orthogonalLoop=1;jettySize=auto;html=1;exitX=1;exitY=0.5;exitDx=0;exitDy=0;entryX=0.5;entryY=0;entryDx=0;entryDy=0;" edge="1" parent="VRv0_hLcXgZbu_qgJ3fP-1" source="VRv0_hLcXgZbu_qgJ3fP-36" target="VRv0_hLcXgZbu_qgJ3fP-52">
          <mxGeometry relative="1" as="geometry">
            <Array as="points">
              <mxPoint x="460" y="990" />
              <mxPoint x="460" y="1450" />
              <mxPoint x="216" y="1450" />
            </Array>
          </mxGeometry>
        </mxCell>
        <mxCell id="VRv0_hLcXgZbu_qgJ3fP-54" style="edgeStyle=orthogonalEdgeStyle;rounded=0;orthogonalLoop=1;jettySize=auto;html=1;exitX=1;exitY=0.5;exitDx=0;exitDy=0;" edge="1" parent="VRv0_hLcXgZbu_qgJ3fP-1" source="VRv0_hLcXgZbu_qgJ3fP-42" target="VRv0_hLcXgZbu_qgJ3fP-52">
          <mxGeometry relative="1" as="geometry">
            <Array as="points">
              <mxPoint x="460" y="1090" />
              <mxPoint x="460" y="1450" />
              <mxPoint x="216" y="1450" />
            </Array>
          </mxGeometry>
        </mxCell>
        <mxCell id="VRv0_hLcXgZbu_qgJ3fP-55" style="edgeStyle=orthogonalEdgeStyle;rounded=0;orthogonalLoop=1;jettySize=auto;html=1;exitX=1;exitY=0.5;exitDx=0;exitDy=0;entryX=0.5;entryY=0;entryDx=0;entryDy=0;" edge="1" parent="VRv0_hLcXgZbu_qgJ3fP-1" source="VRv0_hLcXgZbu_qgJ3fP-44" target="VRv0_hLcXgZbu_qgJ3fP-52">
          <mxGeometry relative="1" as="geometry">
            <Array as="points">
              <mxPoint x="460" y="1190" />
              <mxPoint x="460" y="1450" />
              <mxPoint x="216" y="1450" />
            </Array>
          </mxGeometry>
        </mxCell>
        <mxCell id="VRv0_hLcXgZbu_qgJ3fP-56" style="edgeStyle=orthogonalEdgeStyle;rounded=0;orthogonalLoop=1;jettySize=auto;html=1;exitX=0.5;exitY=1;exitDx=0;exitDy=0;entryX=0.5;entryY=0;entryDx=0;entryDy=0;" edge="1" parent="VRv0_hLcXgZbu_qgJ3fP-1" source="VRv0_hLcXgZbu_qgJ3fP-46" target="VRv0_hLcXgZbu_qgJ3fP-52">
          <mxGeometry relative="1" as="geometry">
            <Array as="points">
              <mxPoint x="380" y="1450" />
              <mxPoint x="216" y="1450" />
            </Array>
          </mxGeometry>
        </mxCell>
        <mxCell id="VRv0_hLcXgZbu_qgJ3fP-57" style="edgeStyle=orthogonalEdgeStyle;rounded=0;orthogonalLoop=1;jettySize=auto;html=1;exitX=0.5;exitY=1;exitDx=0;exitDy=0;entryX=0.5;entryY=0;entryDx=0;entryDy=0;" edge="1" parent="VRv0_hLcXgZbu_qgJ3fP-1" source="VRv0_hLcXgZbu_qgJ3fP-47" target="VRv0_hLcXgZbu_qgJ3fP-52">
          <mxGeometry relative="1" as="geometry" />
        </mxCell>
        <mxCell id="VRv0_hLcXgZbu_qgJ3fP-58" style="edgeStyle=orthogonalEdgeStyle;rounded=0;orthogonalLoop=1;jettySize=auto;html=1;exitX=1;exitY=0.5;exitDx=0;exitDy=0;entryX=0;entryY=0.5;entryDx=0;entryDy=0;" edge="1" parent="VRv0_hLcXgZbu_qgJ3fP-1" source="VRv0_hLcXgZbu_qgJ3fP-59" target="VRv0_hLcXgZbu_qgJ3fP-52">
          <mxGeometry relative="1" as="geometry" />
        </mxCell>
        <mxCell id="VRv0_hLcXgZbu_qgJ3fP-59" value="increment i" style="rounded=0;whiteSpace=wrap;html=1;" vertex="1" parent="VRv0_hLcXgZbu_qgJ3fP-1">
          <mxGeometry y="1480.5" width="120" height="60" as="geometry" />
        </mxCell>
        <mxCell id="VRv0_hLcXgZbu_qgJ3fP-60" style="edgeStyle=orthogonalEdgeStyle;rounded=0;orthogonalLoop=1;jettySize=auto;html=1;exitX=0.5;exitY=1;exitDx=0;exitDy=0;entryX=0.5;entryY=1;entryDx=0;entryDy=0;" edge="1" parent="VRv0_hLcXgZbu_qgJ3fP-1" source="VRv0_hLcXgZbu_qgJ3fP-61" target="VRv0_hLcXgZbu_qgJ3fP-59">
          <mxGeometry relative="1" as="geometry" />
        </mxCell>
        <mxCell id="VRv0_hLcXgZbu_qgJ3fP-61" value="p[i].match = false" style="rounded=0;whiteSpace=wrap;html=1;" vertex="1" parent="VRv0_hLcXgZbu_qgJ3fP-1">
          <mxGeometry x="156.25" y="1570.5" width="120" height="60" as="geometry" />
        </mxCell>
        <mxCell id="VRv0_hLcXgZbu_qgJ3fP-62" style="edgeStyle=orthogonalEdgeStyle;rounded=0;orthogonalLoop=1;jettySize=auto;html=1;exitX=0.5;exitY=1;exitDx=0;exitDy=0;entryX=0.5;entryY=0;entryDx=0;entryDy=0;" edge="1" parent="VRv0_hLcXgZbu_qgJ3fP-1" source="VRv0_hLcXgZbu_qgJ3fP-52" target="VRv0_hLcXgZbu_qgJ3fP-61">
          <mxGeometry relative="1" as="geometry" />
        </mxCell>
        <mxCell id="VRv0_hLcXgZbu_qgJ3fP-63" style="edgeStyle=orthogonalEdgeStyle;rounded=0;orthogonalLoop=1;jettySize=auto;html=1;exitX=0.5;exitY=1;exitDx=0;exitDy=0;entryX=0.5;entryY=0;entryDx=0;entryDy=0;" edge="1" parent="VRv0_hLcXgZbu_qgJ3fP-1" source="VRv0_hLcXgZbu_qgJ3fP-64" target="VRv0_hLcXgZbu_qgJ3fP-3">
          <mxGeometry relative="1" as="geometry" />
        </mxCell>
        <mxCell id="VRv0_hLcXgZbu_qgJ3fP-64" value="cout endl" style="shape=parallelogram;perimeter=parallelogramPerimeter;whiteSpace=wrap;html=1;fixedSize=1;" vertex="1" parent="VRv0_hLcXgZbu_qgJ3fP-1">
          <mxGeometry x="137.5" y="1690.5" width="157.5" height="60" as="geometry" />
        </mxCell>
        <mxCell id="VRv0_hLcXgZbu_qgJ3fP-65" style="edgeStyle=orthogonalEdgeStyle;rounded=0;orthogonalLoop=1;jettySize=auto;html=1;exitX=1;exitY=0.5;exitDx=0;exitDy=0;entryX=0.5;entryY=0;entryDx=0;entryDy=0;" edge="1" parent="VRv0_hLcXgZbu_qgJ3fP-1" source="VRv0_hLcXgZbu_qgJ3fP-52" target="VRv0_hLcXgZbu_qgJ3fP-64">
          <mxGeometry relative="1" as="geometry">
            <Array as="points">
              <mxPoint x="311" y="1510.5" />
              <mxPoint x="311" y="1670.5" />
              <mxPoint x="216" y="1670.5" />
            </Array>
          </mxGeometry>
        </mxCell>
        <mxCell id="VRv0_hLcXgZbu_qgJ3fP-66" value="No" style="text;html=1;strokeColor=none;fillColor=none;align=center;verticalAlign=middle;whiteSpace=wrap;rounded=0;" vertex="1" parent="VRv0_hLcXgZbu_qgJ3fP-1">
          <mxGeometry x="350" y="230" width="60" height="30" as="geometry" />
        </mxCell>
        <mxCell id="VRv0_hLcXgZbu_qgJ3fP-67" value="Yes" style="text;html=1;strokeColor=none;fillColor=none;align=center;verticalAlign=middle;whiteSpace=wrap;rounded=0;" vertex="1" parent="VRv0_hLcXgZbu_qgJ3fP-1">
          <mxGeometry x="210" y="290" width="60" height="30" as="geometry" />
        </mxCell>
        <mxCell id="VRv0_hLcXgZbu_qgJ3fP-68" value="Yes" style="text;html=1;strokeColor=none;fillColor=none;align=center;verticalAlign=middle;whiteSpace=wrap;rounded=0;" vertex="1" parent="VRv0_hLcXgZbu_qgJ3fP-1">
          <mxGeometry x="270" y="330" width="60" height="30" as="geometry" />
        </mxCell>
        <mxCell id="VRv0_hLcXgZbu_qgJ3fP-69" value="No" style="text;html=1;strokeColor=none;fillColor=none;align=center;verticalAlign=middle;whiteSpace=wrap;rounded=0;" vertex="1" parent="VRv0_hLcXgZbu_qgJ3fP-1">
          <mxGeometry x="176.25" y="440" width="60" height="30" as="geometry" />
        </mxCell>
        <mxCell id="VRv0_hLcXgZbu_qgJ3fP-70" value="Yes" style="text;html=1;strokeColor=none;fillColor=none;align=center;verticalAlign=middle;whiteSpace=wrap;rounded=0;" vertex="1" parent="VRv0_hLcXgZbu_qgJ3fP-1">
          <mxGeometry x="270" y="535" width="60" height="30" as="geometry" />
        </mxCell>
        <mxCell id="VRv0_hLcXgZbu_qgJ3fP-71" value="No" style="text;html=1;strokeColor=none;fillColor=none;align=center;verticalAlign=middle;whiteSpace=wrap;rounded=0;" vertex="1" parent="VRv0_hLcXgZbu_qgJ3fP-1">
          <mxGeometry x="176.25" y="603" width="60" height="30" as="geometry" />
        </mxCell>
        <mxCell id="VRv0_hLcXgZbu_qgJ3fP-72" value="No" style="text;html=1;strokeColor=none;fillColor=none;align=center;verticalAlign=middle;whiteSpace=wrap;rounded=0;" vertex="1" parent="VRv0_hLcXgZbu_qgJ3fP-1">
          <mxGeometry x="176.25" y="712" width="60" height="30" as="geometry" />
        </mxCell>
        <mxCell id="VRv0_hLcXgZbu_qgJ3fP-73" value="Yes" style="text;html=1;strokeColor=none;fillColor=none;align=center;verticalAlign=middle;whiteSpace=wrap;rounded=0;" vertex="1" parent="VRv0_hLcXgZbu_qgJ3fP-1">
          <mxGeometry x="270" y="652" width="60" height="30" as="geometry" />
        </mxCell>
        <mxCell id="VRv0_hLcXgZbu_qgJ3fP-74" value="Yes" style="text;html=1;strokeColor=none;fillColor=none;align=center;verticalAlign=middle;whiteSpace=wrap;rounded=0;" vertex="1" parent="VRv0_hLcXgZbu_qgJ3fP-1">
          <mxGeometry x="270" y="960" width="60" height="30" as="geometry" />
        </mxCell>
        <mxCell id="VRv0_hLcXgZbu_qgJ3fP-75" value="No" style="text;html=1;strokeColor=none;fillColor=none;align=center;verticalAlign=middle;whiteSpace=wrap;rounded=0;" vertex="1" parent="VRv0_hLcXgZbu_qgJ3fP-1">
          <mxGeometry x="170.25" y="1020" width="60" height="30" as="geometry" />
        </mxCell>
        <mxCell id="VRv0_hLcXgZbu_qgJ3fP-76" value="Yes" style="text;html=1;strokeColor=none;fillColor=none;align=center;verticalAlign=middle;whiteSpace=wrap;rounded=0;" vertex="1" parent="VRv0_hLcXgZbu_qgJ3fP-1">
          <mxGeometry x="270" y="1060" width="60" height="30" as="geometry" />
        </mxCell>
        <mxCell id="VRv0_hLcXgZbu_qgJ3fP-77" value="No" style="text;html=1;strokeColor=none;fillColor=none;align=center;verticalAlign=middle;whiteSpace=wrap;rounded=0;" vertex="1" parent="VRv0_hLcXgZbu_qgJ3fP-1">
          <mxGeometry x="170.25" y="1120" width="60" height="30" as="geometry" />
        </mxCell>
        <mxCell id="VRv0_hLcXgZbu_qgJ3fP-78" value="Yes" style="text;html=1;strokeColor=none;fillColor=none;align=center;verticalAlign=middle;whiteSpace=wrap;rounded=0;" vertex="1" parent="VRv0_hLcXgZbu_qgJ3fP-1">
          <mxGeometry x="270" y="1160" width="60" height="30" as="geometry" />
        </mxCell>
        <mxCell id="VRv0_hLcXgZbu_qgJ3fP-79" value="No" style="text;html=1;strokeColor=none;fillColor=none;align=center;verticalAlign=middle;whiteSpace=wrap;rounded=0;" vertex="1" parent="VRv0_hLcXgZbu_qgJ3fP-1">
          <mxGeometry x="170.25" y="1220" width="60" height="30" as="geometry" />
        </mxCell>
        <mxCell id="VRv0_hLcXgZbu_qgJ3fP-80" value="Yes" style="text;html=1;strokeColor=none;fillColor=none;align=center;verticalAlign=middle;whiteSpace=wrap;rounded=0;" vertex="1" parent="VRv0_hLcXgZbu_qgJ3fP-1">
          <mxGeometry x="270" y="1260" width="60" height="30" as="geometry" />
        </mxCell>
        <mxCell id="VRv0_hLcXgZbu_qgJ3fP-81" value="No" style="text;html=1;strokeColor=none;fillColor=none;align=center;verticalAlign=middle;whiteSpace=wrap;rounded=0;" vertex="1" parent="VRv0_hLcXgZbu_qgJ3fP-1">
          <mxGeometry x="170.25" y="1320" width="60" height="30" as="geometry" />
        </mxCell>
        <mxCell id="VRv0_hLcXgZbu_qgJ3fP-82" value="Yes" style="text;html=1;strokeColor=none;fillColor=none;align=center;verticalAlign=middle;whiteSpace=wrap;rounded=0;" vertex="1" parent="VRv0_hLcXgZbu_qgJ3fP-1">
          <mxGeometry x="170" y="1540.5" width="60" height="30" as="geometry" />
        </mxCell>
        <mxCell id="VRv0_hLcXgZbu_qgJ3fP-83" value="No" style="text;html=1;strokeColor=none;fillColor=none;align=center;verticalAlign=middle;whiteSpace=wrap;rounded=0;" vertex="1" parent="VRv0_hLcXgZbu_qgJ3fP-1">
          <mxGeometry x="270" y="1480.5" width="60" height="30" as="geometry" />
        </mxCell>
        <mxCell id="VRv0_hLcXgZbu_qgJ3fP-84" value="" style="group" vertex="1" connectable="0" parent="1">
          <mxGeometry x="240" y="-1060" width="930" height="2280" as="geometry" />
        </mxCell>
        <mxCell id="VRv0_hLcXgZbu_qgJ3fP-85" value="if&lt;br&gt;p[n].order == FIRST&lt;br&gt;&amp;nbsp;" style="rhombus;whiteSpace=wrap;html=1;" vertex="1" parent="VRv0_hLcXgZbu_qgJ3fP-84">
          <mxGeometry x="170" y="150" width="150" height="80" as="geometry" />
        </mxCell>
        <mxCell id="VRv0_hLcXgZbu_qgJ3fP-86" value="Yes" style="text;html=1;strokeColor=none;fillColor=none;align=center;verticalAlign=middle;whiteSpace=wrap;rounded=0;" vertex="1" parent="VRv0_hLcXgZbu_qgJ3fP-84">
          <mxGeometry x="296" y="160" width="60" height="30" as="geometry" />
        </mxCell>
        <mxCell id="VRv0_hLcXgZbu_qgJ3fP-87" value="No" style="text;html=1;strokeColor=none;fillColor=none;align=center;verticalAlign=middle;whiteSpace=wrap;rounded=0;" vertex="1" parent="VRv0_hLcXgZbu_qgJ3fP-84">
          <mxGeometry x="200" y="230" width="60" height="30" as="geometry" />
        </mxCell>
        <mxCell id="VRv0_hLcXgZbu_qgJ3fP-88" value="Start playCard" style="ellipse;whiteSpace=wrap;html=1;" vertex="1" parent="VRv0_hLcXgZbu_qgJ3fP-84">
          <mxGeometry x="185" width="120" height="40" as="geometry" />
        </mxCell>
        <mxCell id="VRv0_hLcXgZbu_qgJ3fP-89" value="End playCard" style="ellipse;whiteSpace=wrap;html=1;" vertex="1" parent="VRv0_hLcXgZbu_qgJ3fP-84">
          <mxGeometry x="810" y="700" width="120" height="40" as="geometry" />
        </mxCell>
        <mxCell id="VRv0_hLcXgZbu_qgJ3fP-90" style="edgeStyle=orthogonalEdgeStyle;rounded=0;orthogonalLoop=1;jettySize=auto;html=1;exitX=0.5;exitY=1;exitDx=0;exitDy=0;entryX=0.5;entryY=0;entryDx=0;entryDy=0;" edge="1" parent="VRv0_hLcXgZbu_qgJ3fP-84" source="VRv0_hLcXgZbu_qgJ3fP-91" target="VRv0_hLcXgZbu_qgJ3fP-85">
          <mxGeometry relative="1" as="geometry" />
        </mxCell>
        <mxCell id="VRv0_hLcXgZbu_qgJ3fP-91" value="&lt;span style=&quot;font-size: 10px;&quot;&gt;bool chosen = false&lt;/span&gt;" style="rounded=0;whiteSpace=wrap;html=1;" vertex="1" parent="VRv0_hLcXgZbu_qgJ3fP-84">
          <mxGeometry x="182" y="70" width="126" height="60" as="geometry" />
        </mxCell>
        <mxCell id="VRv0_hLcXgZbu_qgJ3fP-92" style="edgeStyle=orthogonalEdgeStyle;rounded=0;orthogonalLoop=1;jettySize=auto;html=1;exitX=0.5;exitY=1;exitDx=0;exitDy=0;" edge="1" parent="VRv0_hLcXgZbu_qgJ3fP-84" source="VRv0_hLcXgZbu_qgJ3fP-88" target="VRv0_hLcXgZbu_qgJ3fP-91">
          <mxGeometry relative="1" as="geometry" />
        </mxCell>
        <mxCell id="VRv0_hLcXgZbu_qgJ3fP-93" value="&lt;font style=&quot;font-size: 11px;&quot;&gt;if&lt;br&gt;p[n].hand.cards[0] == 1&lt;br&gt;&amp;nbsp;&lt;/font&gt;" style="rhombus;whiteSpace=wrap;html=1;" vertex="1" parent="VRv0_hLcXgZbu_qgJ3fP-84">
          <mxGeometry x="340" y="150" width="150" height="80" as="geometry" />
        </mxCell>
        <mxCell id="VRv0_hLcXgZbu_qgJ3fP-94" style="edgeStyle=orthogonalEdgeStyle;rounded=0;orthogonalLoop=1;jettySize=auto;html=1;exitX=1;exitY=0.5;exitDx=0;exitDy=0;entryX=0;entryY=0.5;entryDx=0;entryDy=0;" edge="1" parent="VRv0_hLcXgZbu_qgJ3fP-84" source="VRv0_hLcXgZbu_qgJ3fP-85" target="VRv0_hLcXgZbu_qgJ3fP-93">
          <mxGeometry relative="1" as="geometry" />
        </mxCell>
        <mxCell id="VRv0_hLcXgZbu_qgJ3fP-95" style="edgeStyle=orthogonalEdgeStyle;rounded=0;orthogonalLoop=1;jettySize=auto;html=1;exitX=1;exitY=0.5;exitDx=0;exitDy=0;" edge="1" parent="VRv0_hLcXgZbu_qgJ3fP-84" source="VRv0_hLcXgZbu_qgJ3fP-96">
          <mxGeometry relative="1" as="geometry">
            <mxPoint x="870" y="380" as="targetPoint" />
          </mxGeometry>
        </mxCell>
        <mxCell id="VRv0_hLcXgZbu_qgJ3fP-96" value="&lt;font style=&quot;font-size: 12px;&quot;&gt;p[n].choice = 1&lt;br&gt;p[n].match = true&lt;br&gt;chosen = true&lt;/font&gt;" style="rounded=0;whiteSpace=wrap;html=1;" vertex="1" parent="VRv0_hLcXgZbu_qgJ3fP-84">
          <mxGeometry x="525" y="160" width="120" height="60" as="geometry" />
        </mxCell>
        <mxCell id="VRv0_hLcXgZbu_qgJ3fP-97" style="edgeStyle=orthogonalEdgeStyle;rounded=0;orthogonalLoop=1;jettySize=auto;html=1;exitX=1;exitY=0.5;exitDx=0;exitDy=0;entryX=0;entryY=0.5;entryDx=0;entryDy=0;" edge="1" parent="VRv0_hLcXgZbu_qgJ3fP-84" source="VRv0_hLcXgZbu_qgJ3fP-93" target="VRv0_hLcXgZbu_qgJ3fP-96">
          <mxGeometry relative="1" as="geometry" />
        </mxCell>
        <mxCell id="VRv0_hLcXgZbu_qgJ3fP-98" style="edgeStyle=orthogonalEdgeStyle;rounded=0;orthogonalLoop=1;jettySize=auto;html=1;exitX=1;exitY=0.5;exitDx=0;exitDy=0;" edge="1" parent="VRv0_hLcXgZbu_qgJ3fP-84" source="VRv0_hLcXgZbu_qgJ3fP-99" target="VRv0_hLcXgZbu_qgJ3fP-89">
          <mxGeometry relative="1" as="geometry" />
        </mxCell>
        <mxCell id="VRv0_hLcXgZbu_qgJ3fP-99" value="i &amp;lt; 13 &amp;amp;&amp;amp; !chosen" style="rhombus;whiteSpace=wrap;html=1;" vertex="1" parent="VRv0_hLcXgZbu_qgJ3fP-84">
          <mxGeometry x="510" y="340" width="150" height="80" as="geometry" />
        </mxCell>
        <mxCell id="VRv0_hLcXgZbu_qgJ3fP-100" style="edgeStyle=orthogonalEdgeStyle;rounded=0;orthogonalLoop=1;jettySize=auto;html=1;exitX=1;exitY=0.5;exitDx=0;exitDy=0;entryX=0;entryY=0.5;entryDx=0;entryDy=0;" edge="1" parent="VRv0_hLcXgZbu_qgJ3fP-84" source="VRv0_hLcXgZbu_qgJ3fP-101" target="VRv0_hLcXgZbu_qgJ3fP-99">
          <mxGeometry relative="1" as="geometry" />
        </mxCell>
        <mxCell id="VRv0_hLcXgZbu_qgJ3fP-101" value="increment i" style="rounded=0;whiteSpace=wrap;html=1;" vertex="1" parent="VRv0_hLcXgZbu_qgJ3fP-84">
          <mxGeometry x="355" y="350" width="120" height="60" as="geometry" />
        </mxCell>
        <mxCell id="VRv0_hLcXgZbu_qgJ3fP-102" style="edgeStyle=orthogonalEdgeStyle;rounded=0;orthogonalLoop=1;jettySize=auto;html=1;exitX=0.5;exitY=1;exitDx=0;exitDy=0;entryX=0.5;entryY=0;entryDx=0;entryDy=0;" edge="1" parent="VRv0_hLcXgZbu_qgJ3fP-84" source="VRv0_hLcXgZbu_qgJ3fP-103" target="VRv0_hLcXgZbu_qgJ3fP-99">
          <mxGeometry relative="1" as="geometry" />
        </mxCell>
        <mxCell id="VRv0_hLcXgZbu_qgJ3fP-103" value="(else)&lt;br&gt;initialize loop &lt;br&gt;i = 0" style="rounded=0;whiteSpace=wrap;html=1;" vertex="1" parent="VRv0_hLcXgZbu_qgJ3fP-84">
          <mxGeometry x="525" y="260" width="120" height="60" as="geometry" />
        </mxCell>
        <mxCell id="VRv0_hLcXgZbu_qgJ3fP-104" style="edgeStyle=orthogonalEdgeStyle;rounded=0;orthogonalLoop=1;jettySize=auto;html=1;exitX=0.5;exitY=1;exitDx=0;exitDy=0;entryX=0;entryY=0.5;entryDx=0;entryDy=0;" edge="1" parent="VRv0_hLcXgZbu_qgJ3fP-84" source="VRv0_hLcXgZbu_qgJ3fP-93" target="VRv0_hLcXgZbu_qgJ3fP-103">
          <mxGeometry relative="1" as="geometry" />
        </mxCell>
        <mxCell id="VRv0_hLcXgZbu_qgJ3fP-105" style="edgeStyle=orthogonalEdgeStyle;rounded=0;orthogonalLoop=1;jettySize=auto;html=1;exitX=0.5;exitY=1;exitDx=0;exitDy=0;entryX=0.5;entryY=1;entryDx=0;entryDy=0;" edge="1" parent="VRv0_hLcXgZbu_qgJ3fP-84" source="VRv0_hLcXgZbu_qgJ3fP-106" target="VRv0_hLcXgZbu_qgJ3fP-101">
          <mxGeometry relative="1" as="geometry">
            <Array as="points">
              <mxPoint x="585" y="540" />
              <mxPoint x="415" y="540" />
            </Array>
          </mxGeometry>
        </mxCell>
        <mxCell id="VRv0_hLcXgZbu_qgJ3fP-106" value="if&lt;br&gt;p[n].hand.cards[i] != 0&lt;br&gt;&amp;nbsp;" style="rhombus;whiteSpace=wrap;html=1;" vertex="1" parent="VRv0_hLcXgZbu_qgJ3fP-84">
          <mxGeometry x="510" y="435.25" width="150" height="80" as="geometry" />
        </mxCell>
        <mxCell id="VRv0_hLcXgZbu_qgJ3fP-107" style="edgeStyle=orthogonalEdgeStyle;rounded=0;orthogonalLoop=1;jettySize=auto;html=1;exitX=0.5;exitY=1;exitDx=0;exitDy=0;entryX=0.5;entryY=0;entryDx=0;entryDy=0;" edge="1" parent="VRv0_hLcXgZbu_qgJ3fP-84" source="VRv0_hLcXgZbu_qgJ3fP-99" target="VRv0_hLcXgZbu_qgJ3fP-106">
          <mxGeometry relative="1" as="geometry" />
        </mxCell>
        <mxCell id="VRv0_hLcXgZbu_qgJ3fP-108" style="edgeStyle=orthogonalEdgeStyle;rounded=0;orthogonalLoop=1;jettySize=auto;html=1;exitX=0.5;exitY=1;exitDx=0;exitDy=0;entryX=0.5;entryY=1;entryDx=0;entryDy=0;" edge="1" parent="VRv0_hLcXgZbu_qgJ3fP-84" source="VRv0_hLcXgZbu_qgJ3fP-109" target="VRv0_hLcXgZbu_qgJ3fP-101">
          <mxGeometry relative="1" as="geometry">
            <Array as="points">
              <mxPoint x="750" y="540" />
              <mxPoint x="415" y="540" />
            </Array>
          </mxGeometry>
        </mxCell>
        <mxCell id="VRv0_hLcXgZbu_qgJ3fP-109" value="&lt;font style=&quot;font-size: 12px;&quot;&gt;p[n].choice = i+1&lt;br&gt;p[n].match = true&lt;br&gt;chosen = true&lt;/font&gt;" style="rounded=0;whiteSpace=wrap;html=1;" vertex="1" parent="VRv0_hLcXgZbu_qgJ3fP-84">
          <mxGeometry x="690" y="445.25" width="120" height="60" as="geometry" />
        </mxCell>
        <mxCell id="VRv0_hLcXgZbu_qgJ3fP-110" style="edgeStyle=orthogonalEdgeStyle;rounded=0;orthogonalLoop=1;jettySize=auto;html=1;exitX=1;exitY=0.5;exitDx=0;exitDy=0;entryX=0;entryY=0.5;entryDx=0;entryDy=0;" edge="1" parent="VRv0_hLcXgZbu_qgJ3fP-84" source="VRv0_hLcXgZbu_qgJ3fP-106" target="VRv0_hLcXgZbu_qgJ3fP-109">
          <mxGeometry relative="1" as="geometry" />
        </mxCell>
        <mxCell id="VRv0_hLcXgZbu_qgJ3fP-111" value="(else not first)&lt;br&gt;initialize loop &lt;br&gt;s = 0" style="rounded=0;whiteSpace=wrap;html=1;" vertex="1" parent="VRv0_hLcXgZbu_qgJ3fP-84">
          <mxGeometry x="185" y="490" width="120" height="60" as="geometry" />
        </mxCell>
        <mxCell id="VRv0_hLcXgZbu_qgJ3fP-112" style="edgeStyle=orthogonalEdgeStyle;rounded=0;orthogonalLoop=1;jettySize=auto;html=1;exitX=0.5;exitY=1;exitDx=0;exitDy=0;entryX=0.5;entryY=0;entryDx=0;entryDy=0;" edge="1" parent="VRv0_hLcXgZbu_qgJ3fP-84" source="VRv0_hLcXgZbu_qgJ3fP-85" target="VRv0_hLcXgZbu_qgJ3fP-111">
          <mxGeometry relative="1" as="geometry" />
        </mxCell>
        <mxCell id="VRv0_hLcXgZbu_qgJ3fP-113" style="edgeStyle=orthogonalEdgeStyle;rounded=0;orthogonalLoop=1;jettySize=auto;html=1;exitX=1;exitY=0.5;exitDx=0;exitDy=0;" edge="1" parent="VRv0_hLcXgZbu_qgJ3fP-84" source="VRv0_hLcXgZbu_qgJ3fP-114">
          <mxGeometry relative="1" as="geometry">
            <mxPoint x="870" y="620" as="targetPoint" />
          </mxGeometry>
        </mxCell>
        <mxCell id="VRv0_hLcXgZbu_qgJ3fP-114" value="s &amp;lt; 4" style="rhombus;whiteSpace=wrap;html=1;" vertex="1" parent="VRv0_hLcXgZbu_qgJ3fP-84">
          <mxGeometry x="170" y="580" width="150" height="80" as="geometry" />
        </mxCell>
        <mxCell id="VRv0_hLcXgZbu_qgJ3fP-115" style="edgeStyle=orthogonalEdgeStyle;rounded=0;orthogonalLoop=1;jettySize=auto;html=1;exitX=0.5;exitY=1;exitDx=0;exitDy=0;entryX=0.5;entryY=0;entryDx=0;entryDy=0;" edge="1" parent="VRv0_hLcXgZbu_qgJ3fP-84" source="VRv0_hLcXgZbu_qgJ3fP-111" target="VRv0_hLcXgZbu_qgJ3fP-114">
          <mxGeometry relative="1" as="geometry" />
        </mxCell>
        <mxCell id="VRv0_hLcXgZbu_qgJ3fP-116" style="edgeStyle=orthogonalEdgeStyle;rounded=0;orthogonalLoop=1;jettySize=auto;html=1;exitX=1;exitY=0.5;exitDx=0;exitDy=0;entryX=0;entryY=0.5;entryDx=0;entryDy=0;" edge="1" parent="VRv0_hLcXgZbu_qgJ3fP-84" source="VRv0_hLcXgZbu_qgJ3fP-117" target="VRv0_hLcXgZbu_qgJ3fP-114">
          <mxGeometry relative="1" as="geometry" />
        </mxCell>
        <mxCell id="VRv0_hLcXgZbu_qgJ3fP-117" value="increment s" style="rounded=0;whiteSpace=wrap;html=1;" vertex="1" parent="VRv0_hLcXgZbu_qgJ3fP-84">
          <mxGeometry x="20" y="590" width="120" height="60" as="geometry" />
        </mxCell>
        <mxCell id="VRv0_hLcXgZbu_qgJ3fP-118" style="edgeStyle=orthogonalEdgeStyle;rounded=0;orthogonalLoop=1;jettySize=auto;html=1;exitX=0;exitY=0.5;exitDx=0;exitDy=0;entryX=0.5;entryY=1;entryDx=0;entryDy=0;" edge="1" parent="VRv0_hLcXgZbu_qgJ3fP-84" source="VRv0_hLcXgZbu_qgJ3fP-119" target="VRv0_hLcXgZbu_qgJ3fP-117">
          <mxGeometry relative="1" as="geometry" />
        </mxCell>
        <mxCell id="VRv0_hLcXgZbu_qgJ3fP-119" value="if&lt;br&gt;p[s].order == FIRST&lt;br&gt;&amp;nbsp;" style="rhombus;whiteSpace=wrap;html=1;" vertex="1" parent="VRv0_hLcXgZbu_qgJ3fP-84">
          <mxGeometry x="170" y="680" width="150" height="80" as="geometry" />
        </mxCell>
        <mxCell id="VRv0_hLcXgZbu_qgJ3fP-120" style="edgeStyle=orthogonalEdgeStyle;rounded=0;orthogonalLoop=1;jettySize=auto;html=1;exitX=0.5;exitY=1;exitDx=0;exitDy=0;entryX=0.5;entryY=0;entryDx=0;entryDy=0;" edge="1" parent="VRv0_hLcXgZbu_qgJ3fP-84" source="VRv0_hLcXgZbu_qgJ3fP-114" target="VRv0_hLcXgZbu_qgJ3fP-119">
          <mxGeometry relative="1" as="geometry" />
        </mxCell>
        <mxCell id="VRv0_hLcXgZbu_qgJ3fP-121" value="min =" style="rounded=0;whiteSpace=wrap;html=1;" vertex="1" parent="VRv0_hLcXgZbu_qgJ3fP-84">
          <mxGeometry x="185" y="796" width="120" height="60" as="geometry" />
        </mxCell>
        <mxCell id="VRv0_hLcXgZbu_qgJ3fP-122" style="edgeStyle=orthogonalEdgeStyle;rounded=0;orthogonalLoop=1;jettySize=auto;html=1;exitX=0.5;exitY=1;exitDx=0;exitDy=0;entryX=0.5;entryY=0;entryDx=0;entryDy=0;" edge="1" parent="VRv0_hLcXgZbu_qgJ3fP-84" source="VRv0_hLcXgZbu_qgJ3fP-119" target="VRv0_hLcXgZbu_qgJ3fP-121">
          <mxGeometry relative="1" as="geometry" />
        </mxCell>
        <mxCell id="VRv0_hLcXgZbu_qgJ3fP-123" value="p[s].choice &amp;lt; 14 ?" style="rhombus;whiteSpace=wrap;html=1;" vertex="1" parent="VRv0_hLcXgZbu_qgJ3fP-84">
          <mxGeometry x="340" y="786" width="150" height="80" as="geometry" />
        </mxCell>
        <mxCell id="VRv0_hLcXgZbu_qgJ3fP-124" style="edgeStyle=orthogonalEdgeStyle;rounded=0;orthogonalLoop=1;jettySize=auto;html=1;exitX=1;exitY=0.5;exitDx=0;exitDy=0;entryX=0;entryY=0.5;entryDx=0;entryDy=0;" edge="1" parent="VRv0_hLcXgZbu_qgJ3fP-84" source="VRv0_hLcXgZbu_qgJ3fP-121" target="VRv0_hLcXgZbu_qgJ3fP-123">
          <mxGeometry relative="1" as="geometry">
            <mxPoint x="320" y="825.6470588235293" as="targetPoint" />
          </mxGeometry>
        </mxCell>
        <mxCell id="VRv0_hLcXgZbu_qgJ3fP-125" value="0" style="rounded=0;whiteSpace=wrap;html=1;" vertex="1" parent="VRv0_hLcXgZbu_qgJ3fP-84">
          <mxGeometry x="520" y="796" width="120" height="60" as="geometry" />
        </mxCell>
        <mxCell id="VRv0_hLcXgZbu_qgJ3fP-126" style="edgeStyle=orthogonalEdgeStyle;rounded=0;orthogonalLoop=1;jettySize=auto;html=1;exitX=1;exitY=0.5;exitDx=0;exitDy=0;entryX=0;entryY=0.5;entryDx=0;entryDy=0;" edge="1" parent="VRv0_hLcXgZbu_qgJ3fP-84" source="VRv0_hLcXgZbu_qgJ3fP-123" target="VRv0_hLcXgZbu_qgJ3fP-125">
          <mxGeometry relative="1" as="geometry" />
        </mxCell>
        <mxCell id="VRv0_hLcXgZbu_qgJ3fP-127" value="p[s].choice &amp;lt; 27 ?" style="rhombus;whiteSpace=wrap;html=1;" vertex="1" parent="VRv0_hLcXgZbu_qgJ3fP-84">
          <mxGeometry x="340" y="896" width="150" height="80" as="geometry" />
        </mxCell>
        <mxCell id="VRv0_hLcXgZbu_qgJ3fP-128" style="edgeStyle=orthogonalEdgeStyle;rounded=0;orthogonalLoop=1;jettySize=auto;html=1;exitX=0.5;exitY=1;exitDx=0;exitDy=0;entryX=0.5;entryY=0;entryDx=0;entryDy=0;" edge="1" parent="VRv0_hLcXgZbu_qgJ3fP-84" source="VRv0_hLcXgZbu_qgJ3fP-123" target="VRv0_hLcXgZbu_qgJ3fP-127">
          <mxGeometry relative="1" as="geometry" />
        </mxCell>
        <mxCell id="VRv0_hLcXgZbu_qgJ3fP-129" style="edgeStyle=orthogonalEdgeStyle;rounded=0;orthogonalLoop=1;jettySize=auto;html=1;exitX=1;exitY=0.5;exitDx=0;exitDy=0;" edge="1" parent="VRv0_hLcXgZbu_qgJ3fP-84" source="VRv0_hLcXgZbu_qgJ3fP-130">
          <mxGeometry relative="1" as="geometry">
            <mxPoint x="660" y="936.2352941176473" as="targetPoint" />
          </mxGeometry>
        </mxCell>
        <mxCell id="VRv0_hLcXgZbu_qgJ3fP-130" value="14" style="rounded=0;whiteSpace=wrap;html=1;" vertex="1" parent="VRv0_hLcXgZbu_qgJ3fP-84">
          <mxGeometry x="520" y="906" width="120" height="60" as="geometry" />
        </mxCell>
        <mxCell id="VRv0_hLcXgZbu_qgJ3fP-131" style="edgeStyle=orthogonalEdgeStyle;rounded=0;orthogonalLoop=1;jettySize=auto;html=1;exitX=1;exitY=0.5;exitDx=0;exitDy=0;entryX=0;entryY=0.5;entryDx=0;entryDy=0;" edge="1" parent="VRv0_hLcXgZbu_qgJ3fP-84" source="VRv0_hLcXgZbu_qgJ3fP-127" target="VRv0_hLcXgZbu_qgJ3fP-130">
          <mxGeometry relative="1" as="geometry" />
        </mxCell>
        <mxCell id="VRv0_hLcXgZbu_qgJ3fP-132" value="p[s].choice &amp;lt; 40 ?" style="rhombus;whiteSpace=wrap;html=1;" vertex="1" parent="VRv0_hLcXgZbu_qgJ3fP-84">
          <mxGeometry x="340" y="1006" width="150" height="80" as="geometry" />
        </mxCell>
        <mxCell id="VRv0_hLcXgZbu_qgJ3fP-133" style="edgeStyle=orthogonalEdgeStyle;rounded=0;orthogonalLoop=1;jettySize=auto;html=1;exitX=0.5;exitY=1;exitDx=0;exitDy=0;entryX=0.5;entryY=0;entryDx=0;entryDy=0;" edge="1" parent="VRv0_hLcXgZbu_qgJ3fP-84" source="VRv0_hLcXgZbu_qgJ3fP-127" target="VRv0_hLcXgZbu_qgJ3fP-132">
          <mxGeometry relative="1" as="geometry" />
        </mxCell>
        <mxCell id="VRv0_hLcXgZbu_qgJ3fP-134" style="edgeStyle=orthogonalEdgeStyle;rounded=0;orthogonalLoop=1;jettySize=auto;html=1;exitX=1;exitY=0.5;exitDx=0;exitDy=0;" edge="1" parent="VRv0_hLcXgZbu_qgJ3fP-84" source="VRv0_hLcXgZbu_qgJ3fP-135">
          <mxGeometry relative="1" as="geometry">
            <mxPoint x="660" y="1045.6470588235293" as="targetPoint" />
          </mxGeometry>
        </mxCell>
        <mxCell id="VRv0_hLcXgZbu_qgJ3fP-135" value="27" style="rounded=0;whiteSpace=wrap;html=1;" vertex="1" parent="VRv0_hLcXgZbu_qgJ3fP-84">
          <mxGeometry x="520" y="1016" width="120" height="60" as="geometry" />
        </mxCell>
        <mxCell id="VRv0_hLcXgZbu_qgJ3fP-136" style="edgeStyle=orthogonalEdgeStyle;rounded=0;orthogonalLoop=1;jettySize=auto;html=1;exitX=1;exitY=0.5;exitDx=0;exitDy=0;entryX=0;entryY=0.5;entryDx=0;entryDy=0;" edge="1" parent="VRv0_hLcXgZbu_qgJ3fP-84" source="VRv0_hLcXgZbu_qgJ3fP-132" target="VRv0_hLcXgZbu_qgJ3fP-135">
          <mxGeometry relative="1" as="geometry" />
        </mxCell>
        <mxCell id="VRv0_hLcXgZbu_qgJ3fP-137" style="edgeStyle=orthogonalEdgeStyle;rounded=0;orthogonalLoop=1;jettySize=auto;html=1;exitX=1;exitY=0.5;exitDx=0;exitDy=0;" edge="1" parent="VRv0_hLcXgZbu_qgJ3fP-84" source="VRv0_hLcXgZbu_qgJ3fP-138">
          <mxGeometry relative="1" as="geometry">
            <mxPoint x="660" y="1136.2352941176473" as="targetPoint" />
          </mxGeometry>
        </mxCell>
        <mxCell id="VRv0_hLcXgZbu_qgJ3fP-138" value="40" style="rounded=0;whiteSpace=wrap;html=1;" vertex="1" parent="VRv0_hLcXgZbu_qgJ3fP-84">
          <mxGeometry x="520" y="1106" width="120" height="60" as="geometry" />
        </mxCell>
        <mxCell id="VRv0_hLcXgZbu_qgJ3fP-139" style="edgeStyle=orthogonalEdgeStyle;rounded=0;orthogonalLoop=1;jettySize=auto;html=1;exitX=0.5;exitY=1;exitDx=0;exitDy=0;entryX=0;entryY=0.5;entryDx=0;entryDy=0;" edge="1" parent="VRv0_hLcXgZbu_qgJ3fP-84" source="VRv0_hLcXgZbu_qgJ3fP-132" target="VRv0_hLcXgZbu_qgJ3fP-138">
          <mxGeometry relative="1" as="geometry" />
        </mxCell>
        <mxCell id="VRv0_hLcXgZbu_qgJ3fP-140" value="max = min + 13" style="rounded=0;whiteSpace=wrap;html=1;" vertex="1" parent="VRv0_hLcXgZbu_qgJ3fP-84">
          <mxGeometry x="184" y="1240" width="120" height="60" as="geometry" />
        </mxCell>
        <mxCell id="VRv0_hLcXgZbu_qgJ3fP-141" style="edgeStyle=orthogonalEdgeStyle;rounded=0;orthogonalLoop=1;jettySize=auto;html=1;exitX=1;exitY=0.5;exitDx=0;exitDy=0;" edge="1" parent="VRv0_hLcXgZbu_qgJ3fP-84" source="VRv0_hLcXgZbu_qgJ3fP-125" target="VRv0_hLcXgZbu_qgJ3fP-140">
          <mxGeometry relative="1" as="geometry">
            <Array as="points">
              <mxPoint x="660" y="826" />
              <mxPoint x="660" y="1196" />
              <mxPoint x="244" y="1196" />
            </Array>
          </mxGeometry>
        </mxCell>
        <mxCell id="VRv0_hLcXgZbu_qgJ3fP-142" value="initialize loop&lt;br&gt;i = 0&lt;br&gt;(check for suit match)" style="rounded=0;whiteSpace=wrap;html=1;" vertex="1" parent="VRv0_hLcXgZbu_qgJ3fP-84">
          <mxGeometry x="184" y="1320" width="120" height="60" as="geometry" />
        </mxCell>
        <mxCell id="VRv0_hLcXgZbu_qgJ3fP-143" style="edgeStyle=orthogonalEdgeStyle;rounded=0;orthogonalLoop=1;jettySize=auto;html=1;exitX=0.5;exitY=1;exitDx=0;exitDy=0;entryX=0.5;entryY=0;entryDx=0;entryDy=0;" edge="1" parent="VRv0_hLcXgZbu_qgJ3fP-84" source="VRv0_hLcXgZbu_qgJ3fP-140" target="VRv0_hLcXgZbu_qgJ3fP-142">
          <mxGeometry relative="1" as="geometry" />
        </mxCell>
        <mxCell id="VRv0_hLcXgZbu_qgJ3fP-144" value="i &amp;lt; 13 &amp;amp;&amp;amp; !chosen" style="rhombus;whiteSpace=wrap;html=1;" vertex="1" parent="VRv0_hLcXgZbu_qgJ3fP-84">
          <mxGeometry x="169" y="1400" width="150" height="80" as="geometry" />
        </mxCell>
        <mxCell id="VRv0_hLcXgZbu_qgJ3fP-145" style="edgeStyle=orthogonalEdgeStyle;rounded=0;orthogonalLoop=1;jettySize=auto;html=1;exitX=0.5;exitY=1;exitDx=0;exitDy=0;entryX=0.5;entryY=0;entryDx=0;entryDy=0;" edge="1" parent="VRv0_hLcXgZbu_qgJ3fP-84" source="VRv0_hLcXgZbu_qgJ3fP-142" target="VRv0_hLcXgZbu_qgJ3fP-144">
          <mxGeometry relative="1" as="geometry" />
        </mxCell>
        <mxCell id="VRv0_hLcXgZbu_qgJ3fP-146" style="edgeStyle=orthogonalEdgeStyle;rounded=0;orthogonalLoop=1;jettySize=auto;html=1;exitX=1;exitY=0.5;exitDx=0;exitDy=0;entryX=0;entryY=0.5;entryDx=0;entryDy=0;" edge="1" parent="VRv0_hLcXgZbu_qgJ3fP-84" source="VRv0_hLcXgZbu_qgJ3fP-147" target="VRv0_hLcXgZbu_qgJ3fP-144">
          <mxGeometry relative="1" as="geometry" />
        </mxCell>
        <mxCell id="VRv0_hLcXgZbu_qgJ3fP-147" value="increment i" style="rounded=0;whiteSpace=wrap;html=1;" vertex="1" parent="VRv0_hLcXgZbu_qgJ3fP-84">
          <mxGeometry x="29" y="1410" width="120" height="60" as="geometry" />
        </mxCell>
        <mxCell id="VRv0_hLcXgZbu_qgJ3fP-148" style="edgeStyle=orthogonalEdgeStyle;rounded=0;orthogonalLoop=1;jettySize=auto;html=1;exitX=0.5;exitY=1;exitDx=0;exitDy=0;entryX=0.5;entryY=1;entryDx=0;entryDy=0;" edge="1" parent="VRv0_hLcXgZbu_qgJ3fP-84" source="VRv0_hLcXgZbu_qgJ3fP-149" target="VRv0_hLcXgZbu_qgJ3fP-147">
          <mxGeometry relative="1" as="geometry" />
        </mxCell>
        <mxCell id="VRv0_hLcXgZbu_qgJ3fP-149" value="if&lt;br&gt;cards[i] &amp;gt;= min &lt;br&gt;&amp;amp;&amp;amp; &amp;lt;= max&lt;br&gt;&amp;amp;&amp;amp; != 0" style="rhombus;whiteSpace=wrap;html=1;" vertex="1" parent="VRv0_hLcXgZbu_qgJ3fP-84">
          <mxGeometry x="169" y="1500" width="150" height="80" as="geometry" />
        </mxCell>
        <mxCell id="VRv0_hLcXgZbu_qgJ3fP-150" style="edgeStyle=orthogonalEdgeStyle;rounded=0;orthogonalLoop=1;jettySize=auto;html=1;exitX=0.5;exitY=1;exitDx=0;exitDy=0;entryX=0.5;entryY=0;entryDx=0;entryDy=0;" edge="1" parent="VRv0_hLcXgZbu_qgJ3fP-84" source="VRv0_hLcXgZbu_qgJ3fP-144" target="VRv0_hLcXgZbu_qgJ3fP-149">
          <mxGeometry relative="1" as="geometry" />
        </mxCell>
        <mxCell id="VRv0_hLcXgZbu_qgJ3fP-151" style="edgeStyle=orthogonalEdgeStyle;rounded=0;orthogonalLoop=1;jettySize=auto;html=1;exitX=0.5;exitY=1;exitDx=0;exitDy=0;entryX=0.5;entryY=1;entryDx=0;entryDy=0;" edge="1" parent="VRv0_hLcXgZbu_qgJ3fP-84" source="VRv0_hLcXgZbu_qgJ3fP-152" target="VRv0_hLcXgZbu_qgJ3fP-147">
          <mxGeometry relative="1" as="geometry">
            <Array as="points">
              <mxPoint x="424" y="1600" />
              <mxPoint x="89" y="1600" />
            </Array>
          </mxGeometry>
        </mxCell>
        <mxCell id="VRv0_hLcXgZbu_qgJ3fP-152" value="p[n].choice = i+1&lt;br&gt;chosen = true&lt;br&gt;p[n].match = true" style="rounded=0;whiteSpace=wrap;html=1;" vertex="1" parent="VRv0_hLcXgZbu_qgJ3fP-84">
          <mxGeometry x="364" y="1510" width="120" height="60" as="geometry" />
        </mxCell>
        <mxCell id="VRv0_hLcXgZbu_qgJ3fP-153" style="edgeStyle=orthogonalEdgeStyle;rounded=0;orthogonalLoop=1;jettySize=auto;html=1;exitX=1;exitY=0.5;exitDx=0;exitDy=0;" edge="1" parent="VRv0_hLcXgZbu_qgJ3fP-84" source="VRv0_hLcXgZbu_qgJ3fP-149" target="VRv0_hLcXgZbu_qgJ3fP-152">
          <mxGeometry relative="1" as="geometry" />
        </mxCell>
        <mxCell id="VRv0_hLcXgZbu_qgJ3fP-154" style="edgeStyle=orthogonalEdgeStyle;rounded=0;orthogonalLoop=1;jettySize=auto;html=1;exitX=0;exitY=0.5;exitDx=0;exitDy=0;entryX=0;entryY=0.5;entryDx=0;entryDy=0;" edge="1" parent="VRv0_hLcXgZbu_qgJ3fP-84" source="VRv0_hLcXgZbu_qgJ3fP-155" target="VRv0_hLcXgZbu_qgJ3fP-117">
          <mxGeometry relative="1" as="geometry" />
        </mxCell>
        <mxCell id="VRv0_hLcXgZbu_qgJ3fP-155" value="if&lt;br&gt;!chosen&lt;br&gt;&lt;font style=&quot;font-size: 11px;&quot;&gt;&lt;font style=&quot;font-size: 11px;&quot;&gt;(check for Q,A,K&lt;/font&gt; ♠&lt;/font&gt;&lt;font style=&quot;font-size: 11px;&quot;&gt;&lt;font style=&quot;font-size: 11px;&quot;&gt;)&lt;/font&gt;&lt;br&gt;&lt;br&gt;&lt;/font&gt;" style="rhombus;whiteSpace=wrap;html=1;" vertex="1" parent="VRv0_hLcXgZbu_qgJ3fP-84">
          <mxGeometry x="512.96" y="1630" width="150" height="80" as="geometry" />
        </mxCell>
        <mxCell id="VRv0_hLcXgZbu_qgJ3fP-156" style="edgeStyle=orthogonalEdgeStyle;rounded=0;orthogonalLoop=1;jettySize=auto;html=1;exitX=1;exitY=0.5;exitDx=0;exitDy=0;entryX=0.5;entryY=0;entryDx=0;entryDy=0;" edge="1" parent="VRv0_hLcXgZbu_qgJ3fP-84" source="VRv0_hLcXgZbu_qgJ3fP-144" target="VRv0_hLcXgZbu_qgJ3fP-155">
          <mxGeometry relative="1" as="geometry" />
        </mxCell>
        <mxCell id="VRv0_hLcXgZbu_qgJ3fP-157" value="if&lt;br&gt;cards[ j ] == 37" style="rhombus;whiteSpace=wrap;html=1;" vertex="1" parent="VRv0_hLcXgZbu_qgJ3fP-84">
          <mxGeometry x="512.96" y="1924" width="150" height="80" as="geometry" />
        </mxCell>
        <mxCell id="VRv0_hLcXgZbu_qgJ3fP-158" value="if&lt;br style=&quot;border-color: var(--border-color);&quot;&gt;cards[ j ] == 39" style="rhombus;whiteSpace=wrap;html=1;" vertex="1" parent="VRv0_hLcXgZbu_qgJ3fP-84">
          <mxGeometry x="512.96" y="2034" width="150" height="80" as="geometry" />
        </mxCell>
        <mxCell id="VRv0_hLcXgZbu_qgJ3fP-159" style="edgeStyle=orthogonalEdgeStyle;rounded=0;orthogonalLoop=1;jettySize=auto;html=1;exitX=0.5;exitY=1;exitDx=0;exitDy=0;entryX=0.5;entryY=0;entryDx=0;entryDy=0;" edge="1" parent="VRv0_hLcXgZbu_qgJ3fP-84" source="VRv0_hLcXgZbu_qgJ3fP-157" target="VRv0_hLcXgZbu_qgJ3fP-158">
          <mxGeometry relative="1" as="geometry" />
        </mxCell>
        <mxCell id="VRv0_hLcXgZbu_qgJ3fP-160" value="if&lt;br style=&quot;border-color: var(--border-color);&quot;&gt;cards[ j ] == 38" style="rhombus;whiteSpace=wrap;html=1;" vertex="1" parent="VRv0_hLcXgZbu_qgJ3fP-84">
          <mxGeometry x="512.96" y="2144" width="150" height="80" as="geometry" />
        </mxCell>
        <mxCell id="VRv0_hLcXgZbu_qgJ3fP-161" style="edgeStyle=orthogonalEdgeStyle;rounded=0;orthogonalLoop=1;jettySize=auto;html=1;exitX=0.5;exitY=1;exitDx=0;exitDy=0;entryX=0.5;entryY=0;entryDx=0;entryDy=0;" edge="1" parent="VRv0_hLcXgZbu_qgJ3fP-84" source="VRv0_hLcXgZbu_qgJ3fP-158" target="VRv0_hLcXgZbu_qgJ3fP-160">
          <mxGeometry relative="1" as="geometry" />
        </mxCell>
        <mxCell id="VRv0_hLcXgZbu_qgJ3fP-162" style="edgeStyle=orthogonalEdgeStyle;rounded=0;orthogonalLoop=1;jettySize=auto;html=1;exitX=1;exitY=0.5;exitDx=0;exitDy=0;" edge="1" parent="VRv0_hLcXgZbu_qgJ3fP-84" source="VRv0_hLcXgZbu_qgJ3fP-163">
          <mxGeometry relative="1" as="geometry">
            <mxPoint x="833.96" y="1964.2307692307695" as="targetPoint" />
          </mxGeometry>
        </mxCell>
        <mxCell id="VRv0_hLcXgZbu_qgJ3fP-163" value="p[n].choice = j+1&lt;br&gt;chosen = true&lt;br&gt;p[n].match = false" style="rounded=0;whiteSpace=wrap;html=1;" vertex="1" parent="VRv0_hLcXgZbu_qgJ3fP-84">
          <mxGeometry x="692.96" y="1934" width="120" height="60" as="geometry" />
        </mxCell>
        <mxCell id="VRv0_hLcXgZbu_qgJ3fP-164" style="edgeStyle=orthogonalEdgeStyle;rounded=0;orthogonalLoop=1;jettySize=auto;html=1;exitX=1;exitY=0.5;exitDx=0;exitDy=0;entryX=0;entryY=0.5;entryDx=0;entryDy=0;" edge="1" parent="VRv0_hLcXgZbu_qgJ3fP-84" source="VRv0_hLcXgZbu_qgJ3fP-157" target="VRv0_hLcXgZbu_qgJ3fP-163">
          <mxGeometry relative="1" as="geometry" />
        </mxCell>
        <mxCell id="VRv0_hLcXgZbu_qgJ3fP-165" style="edgeStyle=orthogonalEdgeStyle;rounded=0;orthogonalLoop=1;jettySize=auto;html=1;exitX=1;exitY=0.5;exitDx=0;exitDy=0;" edge="1" parent="VRv0_hLcXgZbu_qgJ3fP-84" source="VRv0_hLcXgZbu_qgJ3fP-166">
          <mxGeometry relative="1" as="geometry">
            <mxPoint x="833.96" y="2073.461538461538" as="targetPoint" />
          </mxGeometry>
        </mxCell>
        <mxCell id="VRv0_hLcXgZbu_qgJ3fP-166" value="p[n].choice = j+1&lt;br style=&quot;border-color: var(--border-color);&quot;&gt;chosen = true&lt;br style=&quot;border-color: var(--border-color);&quot;&gt;p[n].match = false" style="rounded=0;whiteSpace=wrap;html=1;" vertex="1" parent="VRv0_hLcXgZbu_qgJ3fP-84">
          <mxGeometry x="692.96" y="2044" width="120" height="60" as="geometry" />
        </mxCell>
        <mxCell id="VRv0_hLcXgZbu_qgJ3fP-167" style="edgeStyle=orthogonalEdgeStyle;rounded=0;orthogonalLoop=1;jettySize=auto;html=1;exitX=1;exitY=0.5;exitDx=0;exitDy=0;entryX=0;entryY=0.5;entryDx=0;entryDy=0;" edge="1" parent="VRv0_hLcXgZbu_qgJ3fP-84" source="VRv0_hLcXgZbu_qgJ3fP-158" target="VRv0_hLcXgZbu_qgJ3fP-166">
          <mxGeometry relative="1" as="geometry" />
        </mxCell>
        <mxCell id="VRv0_hLcXgZbu_qgJ3fP-168" style="edgeStyle=orthogonalEdgeStyle;rounded=0;orthogonalLoop=1;jettySize=auto;html=1;exitX=1;exitY=0.5;exitDx=0;exitDy=0;" edge="1" parent="VRv0_hLcXgZbu_qgJ3fP-84" source="VRv0_hLcXgZbu_qgJ3fP-169">
          <mxGeometry relative="1" as="geometry">
            <mxPoint x="833.96" y="2184.2307692307695" as="targetPoint" />
          </mxGeometry>
        </mxCell>
        <mxCell id="VRv0_hLcXgZbu_qgJ3fP-169" value="p[n].choice = j+1&lt;br style=&quot;border-color: var(--border-color);&quot;&gt;chosen = true&lt;br style=&quot;border-color: var(--border-color);&quot;&gt;p[n].match = false" style="rounded=0;whiteSpace=wrap;html=1;" vertex="1" parent="VRv0_hLcXgZbu_qgJ3fP-84">
          <mxGeometry x="692.96" y="2154" width="120" height="60" as="geometry" />
        </mxCell>
        <mxCell id="VRv0_hLcXgZbu_qgJ3fP-170" style="edgeStyle=orthogonalEdgeStyle;rounded=0;orthogonalLoop=1;jettySize=auto;html=1;exitX=1;exitY=0.5;exitDx=0;exitDy=0;entryX=0;entryY=0.5;entryDx=0;entryDy=0;" edge="1" parent="VRv0_hLcXgZbu_qgJ3fP-84" source="VRv0_hLcXgZbu_qgJ3fP-160" target="VRv0_hLcXgZbu_qgJ3fP-169">
          <mxGeometry relative="1" as="geometry" />
        </mxCell>
        <mxCell id="VRv0_hLcXgZbu_qgJ3fP-171" value="initialize loop&lt;br&gt;j = 12" style="rounded=0;whiteSpace=wrap;html=1;" vertex="1" parent="VRv0_hLcXgZbu_qgJ3fP-84">
          <mxGeometry x="527.96" y="1734" width="120" height="60" as="geometry" />
        </mxCell>
        <mxCell id="VRv0_hLcXgZbu_qgJ3fP-172" style="edgeStyle=orthogonalEdgeStyle;rounded=0;orthogonalLoop=1;jettySize=auto;html=1;exitX=0.5;exitY=1;exitDx=0;exitDy=0;entryX=0.5;entryY=0;entryDx=0;entryDy=0;" edge="1" parent="VRv0_hLcXgZbu_qgJ3fP-84" source="VRv0_hLcXgZbu_qgJ3fP-155" target="VRv0_hLcXgZbu_qgJ3fP-171">
          <mxGeometry relative="1" as="geometry" />
        </mxCell>
        <mxCell id="VRv0_hLcXgZbu_qgJ3fP-173" style="edgeStyle=orthogonalEdgeStyle;rounded=0;orthogonalLoop=1;jettySize=auto;html=1;exitX=0.5;exitY=1;exitDx=0;exitDy=0;entryX=0.5;entryY=0;entryDx=0;entryDy=0;" edge="1" parent="VRv0_hLcXgZbu_qgJ3fP-84" source="VRv0_hLcXgZbu_qgJ3fP-174" target="VRv0_hLcXgZbu_qgJ3fP-157">
          <mxGeometry relative="1" as="geometry" />
        </mxCell>
        <mxCell id="VRv0_hLcXgZbu_qgJ3fP-174" value="j &amp;gt; 0 &amp;amp;&amp;amp; !chosen" style="rhombus;whiteSpace=wrap;html=1;" vertex="1" parent="VRv0_hLcXgZbu_qgJ3fP-84">
          <mxGeometry x="512.96" y="1814" width="150" height="80" as="geometry" />
        </mxCell>
        <mxCell id="VRv0_hLcXgZbu_qgJ3fP-175" style="edgeStyle=orthogonalEdgeStyle;rounded=0;orthogonalLoop=1;jettySize=auto;html=1;exitX=0.5;exitY=1;exitDx=0;exitDy=0;entryX=0.5;entryY=0;entryDx=0;entryDy=0;" edge="1" parent="VRv0_hLcXgZbu_qgJ3fP-84" source="VRv0_hLcXgZbu_qgJ3fP-171" target="VRv0_hLcXgZbu_qgJ3fP-174">
          <mxGeometry relative="1" as="geometry" />
        </mxCell>
        <mxCell id="VRv0_hLcXgZbu_qgJ3fP-176" style="edgeStyle=orthogonalEdgeStyle;rounded=0;orthogonalLoop=1;jettySize=auto;html=1;exitX=0;exitY=0.5;exitDx=0;exitDy=0;entryX=1;entryY=0.5;entryDx=0;entryDy=0;" edge="1" parent="VRv0_hLcXgZbu_qgJ3fP-84" source="VRv0_hLcXgZbu_qgJ3fP-177" target="VRv0_hLcXgZbu_qgJ3fP-174">
          <mxGeometry relative="1" as="geometry" />
        </mxCell>
        <mxCell id="VRv0_hLcXgZbu_qgJ3fP-177" value="increment j" style="rounded=0;whiteSpace=wrap;html=1;" vertex="1" parent="VRv0_hLcXgZbu_qgJ3fP-84">
          <mxGeometry x="692.96" y="1824" width="120" height="60" as="geometry" />
        </mxCell>
        <mxCell id="VRv0_hLcXgZbu_qgJ3fP-178" style="edgeStyle=orthogonalEdgeStyle;rounded=0;orthogonalLoop=1;jettySize=auto;html=1;exitX=0.5;exitY=1;exitDx=0;exitDy=0;entryX=1;entryY=0.5;entryDx=0;entryDy=0;" edge="1" parent="VRv0_hLcXgZbu_qgJ3fP-84" source="VRv0_hLcXgZbu_qgJ3fP-160" target="VRv0_hLcXgZbu_qgJ3fP-177">
          <mxGeometry relative="1" as="geometry">
            <Array as="points">
              <mxPoint x="588" y="2280" />
              <mxPoint x="833" y="2280" />
              <mxPoint x="833" y="1854" />
            </Array>
          </mxGeometry>
        </mxCell>
        <mxCell id="VRv0_hLcXgZbu_qgJ3fP-179" style="edgeStyle=orthogonalEdgeStyle;rounded=0;orthogonalLoop=1;jettySize=auto;html=1;exitX=0;exitY=0.5;exitDx=0;exitDy=0;" edge="1" parent="VRv0_hLcXgZbu_qgJ3fP-84" source="VRv0_hLcXgZbu_qgJ3fP-180">
          <mxGeometry relative="1" as="geometry">
            <mxPoint y="1853.461538461538" as="targetPoint" />
          </mxGeometry>
        </mxCell>
        <mxCell id="VRv0_hLcXgZbu_qgJ3fP-180" value="if&lt;br&gt;!chosen&lt;br&gt;&lt;font style=&quot;font-size: 11px;&quot;&gt;&lt;font style=&quot;font-size: 11px;&quot;&gt;(play highest card)&lt;/font&gt;&lt;/font&gt;&lt;font style=&quot;font-size: 11px;&quot;&gt;&lt;br&gt;&lt;br&gt;&lt;/font&gt;" style="rhombus;whiteSpace=wrap;html=1;" vertex="1" parent="VRv0_hLcXgZbu_qgJ3fP-84">
          <mxGeometry x="163.96000000000004" y="1814" width="150" height="80" as="geometry" />
        </mxCell>
        <mxCell id="VRv0_hLcXgZbu_qgJ3fP-181" style="edgeStyle=orthogonalEdgeStyle;rounded=0;orthogonalLoop=1;jettySize=auto;html=1;exitX=0;exitY=0.5;exitDx=0;exitDy=0;entryX=1;entryY=0.5;entryDx=0;entryDy=0;" edge="1" parent="VRv0_hLcXgZbu_qgJ3fP-84" source="VRv0_hLcXgZbu_qgJ3fP-174" target="VRv0_hLcXgZbu_qgJ3fP-180">
          <mxGeometry relative="1" as="geometry" />
        </mxCell>
        <mxCell id="VRv0_hLcXgZbu_qgJ3fP-182" value="if&lt;br&gt;cards[ j ] != 0" style="rhombus;whiteSpace=wrap;html=1;" vertex="1" parent="VRv0_hLcXgZbu_qgJ3fP-84">
          <mxGeometry x="163.96000000000004" y="2144" width="150" height="80" as="geometry" />
        </mxCell>
        <mxCell id="VRv0_hLcXgZbu_qgJ3fP-183" value="p[n].choice = j+1&lt;br&gt;chosen = true&lt;br&gt;p[n].match = false" style="rounded=0;whiteSpace=wrap;html=1;" vertex="1" parent="VRv0_hLcXgZbu_qgJ3fP-84">
          <mxGeometry x="348.96000000000004" y="2154" width="120" height="60" as="geometry" />
        </mxCell>
        <mxCell id="VRv0_hLcXgZbu_qgJ3fP-184" style="edgeStyle=orthogonalEdgeStyle;rounded=0;orthogonalLoop=1;jettySize=auto;html=1;exitX=1;exitY=0.5;exitDx=0;exitDy=0;entryX=0;entryY=0.5;entryDx=0;entryDy=0;" edge="1" parent="VRv0_hLcXgZbu_qgJ3fP-84" source="VRv0_hLcXgZbu_qgJ3fP-182" target="VRv0_hLcXgZbu_qgJ3fP-183">
          <mxGeometry relative="1" as="geometry" />
        </mxCell>
        <mxCell id="VRv0_hLcXgZbu_qgJ3fP-185" value="initialize loop&lt;br&gt;j = 12" style="rounded=0;whiteSpace=wrap;html=1;" vertex="1" parent="VRv0_hLcXgZbu_qgJ3fP-84">
          <mxGeometry x="178.96000000000004" y="1934" width="120" height="60" as="geometry" />
        </mxCell>
        <mxCell id="VRv0_hLcXgZbu_qgJ3fP-186" style="edgeStyle=orthogonalEdgeStyle;rounded=0;orthogonalLoop=1;jettySize=auto;html=1;exitX=0.5;exitY=1;exitDx=0;exitDy=0;entryX=0.5;entryY=0;entryDx=0;entryDy=0;" edge="1" parent="VRv0_hLcXgZbu_qgJ3fP-84" source="VRv0_hLcXgZbu_qgJ3fP-180" target="VRv0_hLcXgZbu_qgJ3fP-185">
          <mxGeometry relative="1" as="geometry" />
        </mxCell>
        <mxCell id="VRv0_hLcXgZbu_qgJ3fP-187" style="edgeStyle=orthogonalEdgeStyle;rounded=0;orthogonalLoop=1;jettySize=auto;html=1;exitX=0.5;exitY=1;exitDx=0;exitDy=0;entryX=0.5;entryY=0;entryDx=0;entryDy=0;" edge="1" parent="VRv0_hLcXgZbu_qgJ3fP-84" source="VRv0_hLcXgZbu_qgJ3fP-189" target="VRv0_hLcXgZbu_qgJ3fP-182">
          <mxGeometry relative="1" as="geometry" />
        </mxCell>
        <mxCell id="VRv0_hLcXgZbu_qgJ3fP-188" style="edgeStyle=orthogonalEdgeStyle;rounded=0;orthogonalLoop=1;jettySize=auto;html=1;exitX=1;exitY=0.5;exitDx=0;exitDy=0;" edge="1" parent="VRv0_hLcXgZbu_qgJ3fP-84" source="VRv0_hLcXgZbu_qgJ3fP-189">
          <mxGeometry relative="1" as="geometry">
            <mxPoint y="1670" as="targetPoint" />
            <Array as="points">
              <mxPoint x="490" y="2074" />
              <mxPoint x="490" y="2280" />
              <mxPoint y="2280" />
            </Array>
          </mxGeometry>
        </mxCell>
        <mxCell id="VRv0_hLcXgZbu_qgJ3fP-189" value="j &amp;gt; 0 &amp;amp;&amp;amp; !chosen" style="rhombus;whiteSpace=wrap;html=1;" vertex="1" parent="VRv0_hLcXgZbu_qgJ3fP-84">
          <mxGeometry x="163.96000000000004" y="2034" width="150" height="80" as="geometry" />
        </mxCell>
        <mxCell id="VRv0_hLcXgZbu_qgJ3fP-190" style="edgeStyle=orthogonalEdgeStyle;rounded=0;orthogonalLoop=1;jettySize=auto;html=1;exitX=0.5;exitY=1;exitDx=0;exitDy=0;" edge="1" parent="VRv0_hLcXgZbu_qgJ3fP-84" source="VRv0_hLcXgZbu_qgJ3fP-185" target="VRv0_hLcXgZbu_qgJ3fP-189">
          <mxGeometry relative="1" as="geometry" />
        </mxCell>
        <mxCell id="VRv0_hLcXgZbu_qgJ3fP-191" style="edgeStyle=orthogonalEdgeStyle;rounded=0;orthogonalLoop=1;jettySize=auto;html=1;exitX=1;exitY=0.5;exitDx=0;exitDy=0;entryX=0;entryY=0.5;entryDx=0;entryDy=0;" edge="1" parent="VRv0_hLcXgZbu_qgJ3fP-84" source="VRv0_hLcXgZbu_qgJ3fP-192" target="VRv0_hLcXgZbu_qgJ3fP-189">
          <mxGeometry relative="1" as="geometry" />
        </mxCell>
        <mxCell id="VRv0_hLcXgZbu_qgJ3fP-192" value="increment j" style="rounded=0;whiteSpace=wrap;html=1;" vertex="1" parent="VRv0_hLcXgZbu_qgJ3fP-84">
          <mxGeometry x="20" y="2044" width="120" height="60" as="geometry" />
        </mxCell>
        <mxCell id="VRv0_hLcXgZbu_qgJ3fP-193" style="edgeStyle=orthogonalEdgeStyle;rounded=0;orthogonalLoop=1;jettySize=auto;html=1;exitX=0.5;exitY=1;exitDx=0;exitDy=0;entryX=0.5;entryY=1;entryDx=0;entryDy=0;" edge="1" parent="VRv0_hLcXgZbu_qgJ3fP-84" source="VRv0_hLcXgZbu_qgJ3fP-182" target="VRv0_hLcXgZbu_qgJ3fP-192">
          <mxGeometry relative="1" as="geometry">
            <Array as="points">
              <mxPoint x="239" y="2260" />
              <mxPoint x="80" y="2260" />
            </Array>
          </mxGeometry>
        </mxCell>
        <mxCell id="VRv0_hLcXgZbu_qgJ3fP-194" style="edgeStyle=orthogonalEdgeStyle;rounded=0;orthogonalLoop=1;jettySize=auto;html=1;exitX=0.5;exitY=1;exitDx=0;exitDy=0;entryX=0.5;entryY=1;entryDx=0;entryDy=0;" edge="1" parent="VRv0_hLcXgZbu_qgJ3fP-84" source="VRv0_hLcXgZbu_qgJ3fP-183" target="VRv0_hLcXgZbu_qgJ3fP-192">
          <mxGeometry relative="1" as="geometry">
            <Array as="points">
              <mxPoint x="409" y="2260" />
              <mxPoint x="80" y="2260" />
            </Array>
          </mxGeometry>
        </mxCell>
        <mxCell id="VRv0_hLcXgZbu_qgJ3fP-195" value="Yes" style="text;html=1;strokeColor=none;fillColor=none;align=center;verticalAlign=middle;whiteSpace=wrap;rounded=0;" vertex="1" parent="VRv0_hLcXgZbu_qgJ3fP-84">
          <mxGeometry x="465" y="160" width="60" height="30" as="geometry" />
        </mxCell>
        <mxCell id="VRv0_hLcXgZbu_qgJ3fP-196" value="No" style="text;html=1;strokeColor=none;fillColor=none;align=center;verticalAlign=middle;whiteSpace=wrap;rounded=0;" vertex="1" parent="VRv0_hLcXgZbu_qgJ3fP-84">
          <mxGeometry x="369" y="230" width="60" height="30" as="geometry" />
        </mxCell>
        <mxCell id="VRv0_hLcXgZbu_qgJ3fP-197" value="Yes" style="text;html=1;strokeColor=none;fillColor=none;align=center;verticalAlign=middle;whiteSpace=wrap;rounded=0;" vertex="1" parent="VRv0_hLcXgZbu_qgJ3fP-84">
          <mxGeometry x="525" y="410" width="60" height="30" as="geometry" />
        </mxCell>
        <mxCell id="VRv0_hLcXgZbu_qgJ3fP-198" value="(card chosen)" style="text;html=1;strokeColor=none;fillColor=none;align=center;verticalAlign=middle;whiteSpace=wrap;rounded=0;" vertex="1" parent="VRv0_hLcXgZbu_qgJ3fP-84">
          <mxGeometry x="660" y="350" width="105" height="30" as="geometry" />
        </mxCell>
        <mxCell id="VRv0_hLcXgZbu_qgJ3fP-199" value="Yes" style="text;html=1;strokeColor=none;fillColor=none;align=center;verticalAlign=middle;whiteSpace=wrap;rounded=0;" vertex="1" parent="VRv0_hLcXgZbu_qgJ3fP-84">
          <mxGeometry x="636" y="450" width="60" height="30" as="geometry" />
        </mxCell>
        <mxCell id="VRv0_hLcXgZbu_qgJ3fP-200" value="No" style="text;html=1;strokeColor=none;fillColor=none;align=center;verticalAlign=middle;whiteSpace=wrap;rounded=0;" vertex="1" parent="VRv0_hLcXgZbu_qgJ3fP-84">
          <mxGeometry x="540" y="510.25" width="60" height="30" as="geometry" />
        </mxCell>
        <mxCell id="VRv0_hLcXgZbu_qgJ3fP-201" value="(card chosen)" style="text;html=1;strokeColor=none;fillColor=none;align=center;verticalAlign=middle;whiteSpace=wrap;rounded=0;" vertex="1" parent="VRv0_hLcXgZbu_qgJ3fP-84">
          <mxGeometry x="324" y="590" width="105" height="30" as="geometry" />
        </mxCell>
        <mxCell id="VRv0_hLcXgZbu_qgJ3fP-202" value="(card chosen)" style="text;html=1;strokeColor=none;fillColor=none;align=center;verticalAlign=middle;whiteSpace=wrap;rounded=0;" vertex="1" parent="VRv0_hLcXgZbu_qgJ3fP-84">
          <mxGeometry x="660" y="160" width="105" height="30" as="geometry" />
        </mxCell>
        <mxCell id="VRv0_hLcXgZbu_qgJ3fP-203" value="Yes" style="text;html=1;strokeColor=none;fillColor=none;align=center;verticalAlign=middle;whiteSpace=wrap;rounded=0;" vertex="1" parent="VRv0_hLcXgZbu_qgJ3fP-84">
          <mxGeometry x="191" y="654.88" width="60" height="30" as="geometry" />
        </mxCell>
        <mxCell id="VRv0_hLcXgZbu_qgJ3fP-204" value="No" style="text;html=1;strokeColor=none;fillColor=none;align=center;verticalAlign=middle;whiteSpace=wrap;rounded=0;" vertex="1" parent="VRv0_hLcXgZbu_qgJ3fP-84">
          <mxGeometry x="118.96000000000004" y="690" width="60" height="30" as="geometry" />
        </mxCell>
        <mxCell id="VRv0_hLcXgZbu_qgJ3fP-205" value="Yes" style="text;html=1;strokeColor=none;fillColor=none;align=center;verticalAlign=middle;whiteSpace=wrap;rounded=0;" vertex="1" parent="VRv0_hLcXgZbu_qgJ3fP-84">
          <mxGeometry x="200" y="760" width="60" height="30" as="geometry" />
        </mxCell>
        <mxCell id="VRv0_hLcXgZbu_qgJ3fP-206" value="Yes" style="text;html=1;strokeColor=none;fillColor=none;align=center;verticalAlign=middle;whiteSpace=wrap;rounded=0;" vertex="1" parent="VRv0_hLcXgZbu_qgJ3fP-84">
          <mxGeometry x="467.96000000000004" y="796" width="60" height="30" as="geometry" />
        </mxCell>
        <mxCell id="VRv0_hLcXgZbu_qgJ3fP-207" value="No" style="text;html=1;strokeColor=none;fillColor=none;align=center;verticalAlign=middle;whiteSpace=wrap;rounded=0;" vertex="1" parent="VRv0_hLcXgZbu_qgJ3fP-84">
          <mxGeometry x="371.96000000000004" y="856.25" width="60" height="30" as="geometry" />
        </mxCell>
        <mxCell id="VRv0_hLcXgZbu_qgJ3fP-208" value="Yes" style="text;html=1;strokeColor=none;fillColor=none;align=center;verticalAlign=middle;whiteSpace=wrap;rounded=0;" vertex="1" parent="VRv0_hLcXgZbu_qgJ3fP-84">
          <mxGeometry x="467.96000000000004" y="906" width="60" height="30" as="geometry" />
        </mxCell>
        <mxCell id="VRv0_hLcXgZbu_qgJ3fP-209" value="No" style="text;html=1;strokeColor=none;fillColor=none;align=center;verticalAlign=middle;whiteSpace=wrap;rounded=0;" vertex="1" parent="VRv0_hLcXgZbu_qgJ3fP-84">
          <mxGeometry x="371.96000000000004" y="966.25" width="60" height="30" as="geometry" />
        </mxCell>
        <mxCell id="VRv0_hLcXgZbu_qgJ3fP-210" value="Yes" style="text;html=1;strokeColor=none;fillColor=none;align=center;verticalAlign=middle;whiteSpace=wrap;rounded=0;" vertex="1" parent="VRv0_hLcXgZbu_qgJ3fP-84">
          <mxGeometry x="467.96000000000004" y="1020.5" width="60" height="30" as="geometry" />
        </mxCell>
        <mxCell id="VRv0_hLcXgZbu_qgJ3fP-211" value="No" style="text;html=1;strokeColor=none;fillColor=none;align=center;verticalAlign=middle;whiteSpace=wrap;rounded=0;" vertex="1" parent="VRv0_hLcXgZbu_qgJ3fP-84">
          <mxGeometry x="371.96000000000004" y="1080.75" width="60" height="30" as="geometry" />
        </mxCell>
        <mxCell id="VRv0_hLcXgZbu_qgJ3fP-212" value="Yes" style="text;html=1;strokeColor=none;fillColor=none;align=center;verticalAlign=middle;whiteSpace=wrap;rounded=0;" vertex="1" parent="VRv0_hLcXgZbu_qgJ3fP-84">
          <mxGeometry x="191" y="1470.25" width="60" height="30" as="geometry" />
        </mxCell>
        <mxCell id="VRv0_hLcXgZbu_qgJ3fP-213" value="No" style="text;html=1;strokeColor=none;fillColor=none;align=center;verticalAlign=middle;whiteSpace=wrap;rounded=0;" vertex="1" parent="VRv0_hLcXgZbu_qgJ3fP-84">
          <mxGeometry x="305" y="1410" width="60" height="30" as="geometry" />
        </mxCell>
        <mxCell id="VRv0_hLcXgZbu_qgJ3fP-214" value="Yes" style="text;html=1;strokeColor=none;fillColor=none;align=center;verticalAlign=middle;whiteSpace=wrap;rounded=0;" vertex="1" parent="VRv0_hLcXgZbu_qgJ3fP-84">
          <mxGeometry x="305" y="1510" width="60" height="30" as="geometry" />
        </mxCell>
        <mxCell id="VRv0_hLcXgZbu_qgJ3fP-215" value="No" style="text;html=1;strokeColor=none;fillColor=none;align=center;verticalAlign=middle;whiteSpace=wrap;rounded=0;" vertex="1" parent="VRv0_hLcXgZbu_qgJ3fP-84">
          <mxGeometry x="191.0000000000001" y="1570" width="60" height="30" as="geometry" />
        </mxCell>
        <mxCell id="VRv0_hLcXgZbu_qgJ3fP-216" value="Yes" style="text;html=1;strokeColor=none;fillColor=none;align=center;verticalAlign=middle;whiteSpace=wrap;rounded=0;" vertex="1" parent="VRv0_hLcXgZbu_qgJ3fP-84">
          <mxGeometry x="530" y="1704" width="60" height="30" as="geometry" />
        </mxCell>
        <mxCell id="VRv0_hLcXgZbu_qgJ3fP-217" value="No" style="text;html=1;strokeColor=none;fillColor=none;align=center;verticalAlign=middle;whiteSpace=wrap;rounded=0;" vertex="1" parent="VRv0_hLcXgZbu_qgJ3fP-84">
          <mxGeometry x="465.0000000000001" y="1640" width="60" height="30" as="geometry" />
        </mxCell>
        <mxCell id="VRv0_hLcXgZbu_qgJ3fP-218" value="Yes" style="text;html=1;strokeColor=none;fillColor=none;align=center;verticalAlign=middle;whiteSpace=wrap;rounded=0;" vertex="1" parent="VRv0_hLcXgZbu_qgJ3fP-84">
          <mxGeometry x="640" y="2154" width="60" height="30" as="geometry" />
        </mxCell>
        <mxCell id="VRv0_hLcXgZbu_qgJ3fP-219" value="No" style="text;html=1;strokeColor=none;fillColor=none;align=center;verticalAlign=middle;whiteSpace=wrap;rounded=0;" vertex="1" parent="VRv0_hLcXgZbu_qgJ3fP-84">
          <mxGeometry x="540.0000000000001" y="2233" width="60" height="30" as="geometry" />
        </mxCell>
        <mxCell id="VRv0_hLcXgZbu_qgJ3fP-220" value="Yes" style="text;html=1;strokeColor=none;fillColor=none;align=center;verticalAlign=middle;whiteSpace=wrap;rounded=0;" vertex="1" parent="VRv0_hLcXgZbu_qgJ3fP-84">
          <mxGeometry x="640" y="1934" width="60" height="30" as="geometry" />
        </mxCell>
        <mxCell id="VRv0_hLcXgZbu_qgJ3fP-221" value="No" style="text;html=1;strokeColor=none;fillColor=none;align=center;verticalAlign=middle;whiteSpace=wrap;rounded=0;" vertex="1" parent="VRv0_hLcXgZbu_qgJ3fP-84">
          <mxGeometry x="460.0000000000001" y="1824" width="60" height="30" as="geometry" />
        </mxCell>
        <mxCell id="VRv0_hLcXgZbu_qgJ3fP-222" value="Yes" style="text;html=1;strokeColor=none;fillColor=none;align=center;verticalAlign=middle;whiteSpace=wrap;rounded=0;" vertex="1" parent="VRv0_hLcXgZbu_qgJ3fP-84">
          <mxGeometry x="640" y="2040" width="60" height="30" as="geometry" />
        </mxCell>
        <mxCell id="VRv0_hLcXgZbu_qgJ3fP-223" value="No" style="text;html=1;strokeColor=none;fillColor=none;align=center;verticalAlign=middle;whiteSpace=wrap;rounded=0;" vertex="1" parent="VRv0_hLcXgZbu_qgJ3fP-84">
          <mxGeometry x="540.0000000000001" y="2114" width="60" height="30" as="geometry" />
        </mxCell>
        <mxCell id="VRv0_hLcXgZbu_qgJ3fP-224" value="Yes" style="text;html=1;strokeColor=none;fillColor=none;align=center;verticalAlign=middle;whiteSpace=wrap;rounded=0;" vertex="1" parent="VRv0_hLcXgZbu_qgJ3fP-84">
          <mxGeometry x="540" y="1894" width="60" height="30" as="geometry" />
        </mxCell>
        <mxCell id="VRv0_hLcXgZbu_qgJ3fP-225" value="No" style="text;html=1;strokeColor=none;fillColor=none;align=center;verticalAlign=middle;whiteSpace=wrap;rounded=0;" vertex="1" parent="VRv0_hLcXgZbu_qgJ3fP-84">
          <mxGeometry x="540.0000000000001" y="1994" width="60" height="30" as="geometry" />
        </mxCell>
        <mxCell id="VRv0_hLcXgZbu_qgJ3fP-226" value="No" style="text;html=1;strokeColor=none;fillColor=none;align=center;verticalAlign=middle;whiteSpace=wrap;rounded=0;" vertex="1" parent="VRv0_hLcXgZbu_qgJ3fP-84">
          <mxGeometry x="118.96000000000015" y="1824" width="60" height="30" as="geometry" />
        </mxCell>
        <mxCell id="VRv0_hLcXgZbu_qgJ3fP-227" value="Yes" style="text;html=1;strokeColor=none;fillColor=none;align=center;verticalAlign=middle;whiteSpace=wrap;rounded=0;" vertex="1" parent="VRv0_hLcXgZbu_qgJ3fP-84">
          <mxGeometry x="191" y="1896.5" width="60" height="30" as="geometry" />
        </mxCell>
        <mxCell id="VRv0_hLcXgZbu_qgJ3fP-228" value="No" style="text;html=1;strokeColor=none;fillColor=none;align=center;verticalAlign=middle;whiteSpace=wrap;rounded=0;" vertex="1" parent="VRv0_hLcXgZbu_qgJ3fP-84">
          <mxGeometry x="191.00000000000023" y="2224" width="60" height="30" as="geometry" />
        </mxCell>
        <mxCell id="VRv0_hLcXgZbu_qgJ3fP-229" value="Yes" style="text;html=1;strokeColor=none;fillColor=none;align=center;verticalAlign=middle;whiteSpace=wrap;rounded=0;" vertex="1" parent="VRv0_hLcXgZbu_qgJ3fP-84">
          <mxGeometry x="191" y="2114" width="60" height="30" as="geometry" />
        </mxCell>
        <mxCell id="VRv0_hLcXgZbu_qgJ3fP-230" value="No" style="text;html=1;strokeColor=none;fillColor=none;align=center;verticalAlign=middle;whiteSpace=wrap;rounded=0;" vertex="1" parent="VRv0_hLcXgZbu_qgJ3fP-84">
          <mxGeometry x="320.0000000000001" y="2044" width="60" height="30" as="geometry" />
        </mxCell>
        <mxCell id="VRv0_hLcXgZbu_qgJ3fP-231" value="Yes" style="text;html=1;strokeColor=none;fillColor=none;align=center;verticalAlign=middle;whiteSpace=wrap;rounded=0;" vertex="1" parent="VRv0_hLcXgZbu_qgJ3fP-84">
          <mxGeometry x="298.9599999999999" y="2154" width="60" height="30" as="geometry" />
        </mxCell>
        <mxCell id="VRv0_hLcXgZbu_qgJ3fP-232" value="(card chosen)" style="text;html=1;strokeColor=none;fillColor=none;align=center;verticalAlign=middle;whiteSpace=wrap;rounded=0;" vertex="1" parent="VRv0_hLcXgZbu_qgJ3fP-84">
          <mxGeometry x="326.96000000000004" y="1640" width="105" height="30" as="geometry" />
        </mxCell>
        <mxCell id="VRv0_hLcXgZbu_qgJ3fP-233" value="(card chosen)" style="text;html=1;strokeColor=none;fillColor=none;align=center;verticalAlign=middle;whiteSpace=wrap;rounded=0;" vertex="1" parent="VRv0_hLcXgZbu_qgJ3fP-84">
          <mxGeometry x="13.960000000000036" y="1824" width="105" height="30" as="geometry" />
        </mxCell>
        <mxCell id="VRv0_hLcXgZbu_qgJ3fP-234" value="(card chosen)" style="text;html=1;strokeColor=none;fillColor=none;align=center;verticalAlign=middle;whiteSpace=wrap;rounded=0;" vertex="1" parent="VRv0_hLcXgZbu_qgJ3fP-84">
          <mxGeometry x="371.96000000000004" y="2044" width="105" height="30" as="geometry" />
        </mxCell>
        <mxCell id="VRv0_hLcXgZbu_qgJ3fP-235" value="" style="group" vertex="1" connectable="0" parent="1">
          <mxGeometry x="-300" y="-1070" width="470" height="2490" as="geometry" />
        </mxCell>
        <mxCell id="VRv0_hLcXgZbu_qgJ3fP-236" value="Start deal" style="ellipse;whiteSpace=wrap;html=1;" vertex="1" parent="VRv0_hLcXgZbu_qgJ3fP-235">
          <mxGeometry x="161" width="120" height="40" as="geometry" />
        </mxCell>
        <mxCell id="VRv0_hLcXgZbu_qgJ3fP-237" value="&lt;span style=&quot;font-size: 11px;&quot;&gt;p[0].hand.cards[ i ] = deck[ i ]&lt;br&gt;pfv[0].pshow[ i ] = pfv[0].show[ i ] + &quot;\t&quot;&lt;br&gt;&lt;/span&gt;" style="rounded=0;whiteSpace=wrap;html=1;" vertex="1" parent="VRv0_hLcXgZbu_qgJ3fP-235">
          <mxGeometry x="158" y="1140" width="126" height="60" as="geometry" />
        </mxCell>
        <mxCell id="VRv0_hLcXgZbu_qgJ3fP-238" value="&lt;font style=&quot;font-size: 11px;&quot;&gt;p[1].hand.cards[ i ] = deck[ i+13 ]&lt;br style=&quot;border-color: var(--border-color);&quot;&gt;pfv[1].pshow[ i ] = pfv[0].show[ i +13] + &quot;\t&quot;&lt;/font&gt;" style="rounded=0;whiteSpace=wrap;html=1;" vertex="1" parent="VRv0_hLcXgZbu_qgJ3fP-235">
          <mxGeometry x="158" y="1219" width="126" height="60" as="geometry" />
        </mxCell>
        <mxCell id="VRv0_hLcXgZbu_qgJ3fP-239" style="edgeStyle=orthogonalEdgeStyle;rounded=0;orthogonalLoop=1;jettySize=auto;html=1;exitX=0.5;exitY=1;exitDx=0;exitDy=0;entryX=0.5;entryY=0;entryDx=0;entryDy=0;" edge="1" parent="VRv0_hLcXgZbu_qgJ3fP-235" source="VRv0_hLcXgZbu_qgJ3fP-237" target="VRv0_hLcXgZbu_qgJ3fP-238">
          <mxGeometry relative="1" as="geometry" />
        </mxCell>
        <mxCell id="VRv0_hLcXgZbu_qgJ3fP-240" value="&lt;font style=&quot;font-size: 11px;&quot;&gt;p[1].hand.cards[ i ] = deck[ i+26 ]&lt;br style=&quot;border-color: var(--border-color);&quot;&gt;pfv[1].pshow[ i ] = pfv[0].show[ i +26] + &quot;\t&quot;&lt;/font&gt;" style="rounded=0;whiteSpace=wrap;html=1;" vertex="1" parent="VRv0_hLcXgZbu_qgJ3fP-235">
          <mxGeometry x="158" y="1298" width="126" height="60" as="geometry" />
        </mxCell>
        <mxCell id="VRv0_hLcXgZbu_qgJ3fP-241" style="edgeStyle=orthogonalEdgeStyle;rounded=0;orthogonalLoop=1;jettySize=auto;html=1;exitX=0.5;exitY=1;exitDx=0;exitDy=0;entryX=0.5;entryY=0;entryDx=0;entryDy=0;" edge="1" parent="VRv0_hLcXgZbu_qgJ3fP-235" source="VRv0_hLcXgZbu_qgJ3fP-238" target="VRv0_hLcXgZbu_qgJ3fP-240">
          <mxGeometry relative="1" as="geometry" />
        </mxCell>
        <mxCell id="VRv0_hLcXgZbu_qgJ3fP-242" value="&lt;font style=&quot;font-size: 11px;&quot;&gt;p[1].hand.cards[ i ] = deck[ i+39]&lt;br style=&quot;border-color: var(--border-color);&quot;&gt;pfv[1].pshow[ i ] = pfv[0].show[ i +39] + &quot;\t&quot;&lt;/font&gt;" style="rounded=0;whiteSpace=wrap;html=1;" vertex="1" parent="VRv0_hLcXgZbu_qgJ3fP-235">
          <mxGeometry x="158" y="1377" width="126" height="60" as="geometry" />
        </mxCell>
        <mxCell id="VRv0_hLcXgZbu_qgJ3fP-243" style="edgeStyle=orthogonalEdgeStyle;rounded=0;orthogonalLoop=1;jettySize=auto;html=1;exitX=0.5;exitY=1;exitDx=0;exitDy=0;entryX=0.5;entryY=0;entryDx=0;entryDy=0;" edge="1" parent="VRv0_hLcXgZbu_qgJ3fP-235" source="VRv0_hLcXgZbu_qgJ3fP-240" target="VRv0_hLcXgZbu_qgJ3fP-242">
          <mxGeometry relative="1" as="geometry" />
        </mxCell>
        <mxCell id="VRv0_hLcXgZbu_qgJ3fP-244" value="Yes" style="text;html=1;strokeColor=none;fillColor=none;align=center;verticalAlign=middle;whiteSpace=wrap;rounded=0;" vertex="1" parent="VRv0_hLcXgZbu_qgJ3fP-235">
          <mxGeometry x="170" y="610" width="60" height="30" as="geometry" />
        </mxCell>
        <mxCell id="VRv0_hLcXgZbu_qgJ3fP-245" value="No" style="text;html=1;strokeColor=none;fillColor=none;align=center;verticalAlign=middle;whiteSpace=wrap;rounded=0;" vertex="1" parent="VRv0_hLcXgZbu_qgJ3fP-235">
          <mxGeometry x="270" y="550" width="60" height="30" as="geometry" />
        </mxCell>
        <mxCell id="VRv0_hLcXgZbu_qgJ3fP-246" value="cards.open &lt;br&gt;&lt;font style=&quot;font-size: 10px;&quot;&gt;(cards.bin&lt;br&gt;ios::in | ios::binary)&lt;/font&gt;" style="rounded=0;whiteSpace=wrap;html=1;" vertex="1" parent="VRv0_hLcXgZbu_qgJ3fP-235">
          <mxGeometry x="161" y="60" width="120" height="60" as="geometry" />
        </mxCell>
        <mxCell id="VRv0_hLcXgZbu_qgJ3fP-247" style="edgeStyle=orthogonalEdgeStyle;rounded=0;orthogonalLoop=1;jettySize=auto;html=1;exitX=0.5;exitY=1;exitDx=0;exitDy=0;entryX=0.5;entryY=0;entryDx=0;entryDy=0;" edge="1" parent="VRv0_hLcXgZbu_qgJ3fP-235" source="VRv0_hLcXgZbu_qgJ3fP-236" target="VRv0_hLcXgZbu_qgJ3fP-246">
          <mxGeometry relative="1" as="geometry" />
        </mxCell>
        <mxCell id="VRv0_hLcXgZbu_qgJ3fP-248" value="Read&amp;nbsp;&lt;br&gt;to *deck" style="shape=parallelogram;perimeter=parallelogramPerimeter;whiteSpace=wrap;html=1;fixedSize=1;" vertex="1" parent="VRv0_hLcXgZbu_qgJ3fP-235">
          <mxGeometry x="142.25" y="220" width="157.5" height="60" as="geometry" />
        </mxCell>
        <mxCell id="VRv0_hLcXgZbu_qgJ3fP-249" style="edgeStyle=orthogonalEdgeStyle;rounded=0;orthogonalLoop=1;jettySize=auto;html=1;exitX=0.5;exitY=1;exitDx=0;exitDy=0;entryX=0.5;entryY=0;entryDx=0;entryDy=0;" edge="1" parent="VRv0_hLcXgZbu_qgJ3fP-235" source="VRv0_hLcXgZbu_qgJ3fP-250" target="VRv0_hLcXgZbu_qgJ3fP-248">
          <mxGeometry relative="1" as="geometry" />
        </mxCell>
        <mxCell id="VRv0_hLcXgZbu_qgJ3fP-250" value="&lt;font style=&quot;font-size: 11px;&quot;&gt;deck = new int [DECK] (52)&lt;/font&gt;" style="rounded=0;whiteSpace=wrap;html=1;" vertex="1" parent="VRv0_hLcXgZbu_qgJ3fP-235">
          <mxGeometry x="161" y="140" width="120" height="60" as="geometry" />
        </mxCell>
        <mxCell id="VRv0_hLcXgZbu_qgJ3fP-251" style="edgeStyle=orthogonalEdgeStyle;rounded=0;orthogonalLoop=1;jettySize=auto;html=1;exitX=0.5;exitY=1;exitDx=0;exitDy=0;entryX=0.5;entryY=0;entryDx=0;entryDy=0;" edge="1" parent="VRv0_hLcXgZbu_qgJ3fP-235" source="VRv0_hLcXgZbu_qgJ3fP-246" target="VRv0_hLcXgZbu_qgJ3fP-250">
          <mxGeometry relative="1" as="geometry" />
        </mxCell>
        <mxCell id="VRv0_hLcXgZbu_qgJ3fP-252" value="int indx =" style="rounded=0;whiteSpace=wrap;html=1;" vertex="1" parent="VRv0_hLcXgZbu_qgJ3fP-235">
          <mxGeometry x="158" y="1540" width="126" height="60" as="geometry" />
        </mxCell>
        <mxCell id="VRv0_hLcXgZbu_qgJ3fP-253" value="cards.close" style="rounded=0;whiteSpace=wrap;html=1;" vertex="1" parent="VRv0_hLcXgZbu_qgJ3fP-235">
          <mxGeometry x="161" y="300" width="120" height="60" as="geometry" />
        </mxCell>
        <mxCell id="VRv0_hLcXgZbu_qgJ3fP-254" style="edgeStyle=orthogonalEdgeStyle;rounded=0;orthogonalLoop=1;jettySize=auto;html=1;exitX=0.5;exitY=1;exitDx=0;exitDy=0;entryX=0.5;entryY=0;entryDx=0;entryDy=0;" edge="1" parent="VRv0_hLcXgZbu_qgJ3fP-235" source="VRv0_hLcXgZbu_qgJ3fP-248" target="VRv0_hLcXgZbu_qgJ3fP-253">
          <mxGeometry relative="1" as="geometry" />
        </mxCell>
        <mxCell id="VRv0_hLcXgZbu_qgJ3fP-255" value="fv.open&amp;nbsp;&lt;br&gt;(cards.dat ios::in)" style="rounded=0;whiteSpace=wrap;html=1;" vertex="1" parent="VRv0_hLcXgZbu_qgJ3fP-235">
          <mxGeometry x="161" y="380" width="120" height="60" as="geometry" />
        </mxCell>
        <mxCell id="VRv0_hLcXgZbu_qgJ3fP-256" style="edgeStyle=orthogonalEdgeStyle;rounded=0;orthogonalLoop=1;jettySize=auto;html=1;exitX=0.5;exitY=1;exitDx=0;exitDy=0;entryX=0.5;entryY=0;entryDx=0;entryDy=0;" edge="1" parent="VRv0_hLcXgZbu_qgJ3fP-235" source="VRv0_hLcXgZbu_qgJ3fP-253" target="VRv0_hLcXgZbu_qgJ3fP-255">
          <mxGeometry relative="1" as="geometry" />
        </mxCell>
        <mxCell id="VRv0_hLcXgZbu_qgJ3fP-257" value="initiate loop&lt;br&gt;i = 0" style="rounded=0;whiteSpace=wrap;html=1;" vertex="1" parent="VRv0_hLcXgZbu_qgJ3fP-235">
          <mxGeometry x="161" y="460" width="120" height="60" as="geometry" />
        </mxCell>
        <mxCell id="VRv0_hLcXgZbu_qgJ3fP-258" style="edgeStyle=orthogonalEdgeStyle;rounded=0;orthogonalLoop=1;jettySize=auto;html=1;exitX=0.5;exitY=1;exitDx=0;exitDy=0;entryX=0.5;entryY=0;entryDx=0;entryDy=0;" edge="1" parent="VRv0_hLcXgZbu_qgJ3fP-235" source="VRv0_hLcXgZbu_qgJ3fP-255" target="VRv0_hLcXgZbu_qgJ3fP-257">
          <mxGeometry relative="1" as="geometry" />
        </mxCell>
        <mxCell id="VRv0_hLcXgZbu_qgJ3fP-259" value="i &amp;lt; DECK (52)" style="rhombus;whiteSpace=wrap;html=1;" vertex="1" parent="VRv0_hLcXgZbu_qgJ3fP-235">
          <mxGeometry x="146" y="540" width="150" height="80" as="geometry" />
        </mxCell>
        <mxCell id="VRv0_hLcXgZbu_qgJ3fP-260" style="edgeStyle=orthogonalEdgeStyle;rounded=0;orthogonalLoop=1;jettySize=auto;html=1;exitX=0.5;exitY=1;exitDx=0;exitDy=0;entryX=0.5;entryY=0;entryDx=0;entryDy=0;" edge="1" parent="VRv0_hLcXgZbu_qgJ3fP-235" source="VRv0_hLcXgZbu_qgJ3fP-257" target="VRv0_hLcXgZbu_qgJ3fP-259">
          <mxGeometry relative="1" as="geometry" />
        </mxCell>
        <mxCell id="VRv0_hLcXgZbu_qgJ3fP-261" value="getline&lt;br&gt;(fv,pfv[0].show[ i ])" style="shape=parallelogram;perimeter=parallelogramPerimeter;whiteSpace=wrap;html=1;fixedSize=1;" vertex="1" parent="VRv0_hLcXgZbu_qgJ3fP-235">
          <mxGeometry x="142.25" y="640" width="157.5" height="60" as="geometry" />
        </mxCell>
        <mxCell id="VRv0_hLcXgZbu_qgJ3fP-262" style="edgeStyle=orthogonalEdgeStyle;rounded=0;orthogonalLoop=1;jettySize=auto;html=1;exitX=0.5;exitY=1;exitDx=0;exitDy=0;entryX=0.5;entryY=0;entryDx=0;entryDy=0;" edge="1" parent="VRv0_hLcXgZbu_qgJ3fP-235" source="VRv0_hLcXgZbu_qgJ3fP-259" target="VRv0_hLcXgZbu_qgJ3fP-261">
          <mxGeometry relative="1" as="geometry" />
        </mxCell>
        <mxCell id="VRv0_hLcXgZbu_qgJ3fP-263" style="edgeStyle=orthogonalEdgeStyle;rounded=0;orthogonalLoop=1;jettySize=auto;html=1;exitX=1;exitY=0.5;exitDx=0;exitDy=0;entryX=0;entryY=0.5;entryDx=0;entryDy=0;" edge="1" parent="VRv0_hLcXgZbu_qgJ3fP-235" source="VRv0_hLcXgZbu_qgJ3fP-264" target="VRv0_hLcXgZbu_qgJ3fP-259">
          <mxGeometry relative="1" as="geometry" />
        </mxCell>
        <mxCell id="VRv0_hLcXgZbu_qgJ3fP-264" value="increment i" style="rounded=0;whiteSpace=wrap;html=1;" vertex="1" parent="VRv0_hLcXgZbu_qgJ3fP-235">
          <mxGeometry y="550" width="120" height="60" as="geometry" />
        </mxCell>
        <mxCell id="VRv0_hLcXgZbu_qgJ3fP-265" style="edgeStyle=orthogonalEdgeStyle;rounded=0;orthogonalLoop=1;jettySize=auto;html=1;exitX=0;exitY=0.5;exitDx=0;exitDy=0;entryX=0.5;entryY=1;entryDx=0;entryDy=0;" edge="1" parent="VRv0_hLcXgZbu_qgJ3fP-235" source="VRv0_hLcXgZbu_qgJ3fP-261" target="VRv0_hLcXgZbu_qgJ3fP-264">
          <mxGeometry relative="1" as="geometry" />
        </mxCell>
        <mxCell id="VRv0_hLcXgZbu_qgJ3fP-266" value="cout &amp;lt;&amp;lt; endl" style="shape=parallelogram;perimeter=parallelogramPerimeter;whiteSpace=wrap;html=1;fixedSize=1;" vertex="1" parent="VRv0_hLcXgZbu_qgJ3fP-235">
          <mxGeometry x="142.25" y="720" width="157.5" height="60" as="geometry" />
        </mxCell>
        <mxCell id="VRv0_hLcXgZbu_qgJ3fP-267" style="edgeStyle=orthogonalEdgeStyle;rounded=0;orthogonalLoop=1;jettySize=auto;html=1;exitX=1;exitY=0.5;exitDx=0;exitDy=0;entryX=1;entryY=0.5;entryDx=0;entryDy=0;" edge="1" parent="VRv0_hLcXgZbu_qgJ3fP-235" source="VRv0_hLcXgZbu_qgJ3fP-259" target="VRv0_hLcXgZbu_qgJ3fP-266">
          <mxGeometry relative="1" as="geometry">
            <Array as="points">
              <mxPoint x="320" y="580" />
              <mxPoint x="320" y="750" />
            </Array>
          </mxGeometry>
        </mxCell>
        <mxCell id="VRv0_hLcXgZbu_qgJ3fP-268" value="fv.close" style="rounded=0;whiteSpace=wrap;html=1;" vertex="1" parent="VRv0_hLcXgZbu_qgJ3fP-235">
          <mxGeometry x="161" y="800" width="120" height="60" as="geometry" />
        </mxCell>
        <mxCell id="VRv0_hLcXgZbu_qgJ3fP-269" style="edgeStyle=orthogonalEdgeStyle;rounded=0;orthogonalLoop=1;jettySize=auto;html=1;exitX=0.5;exitY=1;exitDx=0;exitDy=0;entryX=0.5;entryY=0;entryDx=0;entryDy=0;" edge="1" parent="VRv0_hLcXgZbu_qgJ3fP-235" source="VRv0_hLcXgZbu_qgJ3fP-266" target="VRv0_hLcXgZbu_qgJ3fP-268">
          <mxGeometry relative="1" as="geometry" />
        </mxCell>
        <mxCell id="VRv0_hLcXgZbu_qgJ3fP-270" value="shuffle" style="shape=process;whiteSpace=wrap;html=1;backgroundOutline=1;" vertex="1" parent="VRv0_hLcXgZbu_qgJ3fP-235">
          <mxGeometry x="161" y="880" width="120" height="60" as="geometry" />
        </mxCell>
        <mxCell id="VRv0_hLcXgZbu_qgJ3fP-271" style="edgeStyle=orthogonalEdgeStyle;rounded=0;orthogonalLoop=1;jettySize=auto;html=1;exitX=0.5;exitY=1;exitDx=0;exitDy=0;" edge="1" parent="VRv0_hLcXgZbu_qgJ3fP-235" source="VRv0_hLcXgZbu_qgJ3fP-268" target="VRv0_hLcXgZbu_qgJ3fP-270">
          <mxGeometry relative="1" as="geometry" />
        </mxCell>
        <mxCell id="VRv0_hLcXgZbu_qgJ3fP-272" style="edgeStyle=orthogonalEdgeStyle;rounded=0;orthogonalLoop=1;jettySize=auto;html=1;exitX=0.5;exitY=1;exitDx=0;exitDy=0;entryX=0.5;entryY=0;entryDx=0;entryDy=0;" edge="1" parent="VRv0_hLcXgZbu_qgJ3fP-235" source="VRv0_hLcXgZbu_qgJ3fP-273" target="VRv0_hLcXgZbu_qgJ3fP-252">
          <mxGeometry relative="1" as="geometry" />
        </mxCell>
        <mxCell id="VRv0_hLcXgZbu_qgJ3fP-273" value="mSort" style="shape=process;whiteSpace=wrap;html=1;backgroundOutline=1;" vertex="1" parent="VRv0_hLcXgZbu_qgJ3fP-235">
          <mxGeometry x="161" y="1460" width="120" height="60" as="geometry" />
        </mxCell>
        <mxCell id="VRv0_hLcXgZbu_qgJ3fP-274" value="initiate loop&lt;br&gt;i = 0" style="rounded=0;whiteSpace=wrap;html=1;" vertex="1" parent="VRv0_hLcXgZbu_qgJ3fP-235">
          <mxGeometry x="161" y="960" width="120" height="60" as="geometry" />
        </mxCell>
        <mxCell id="VRv0_hLcXgZbu_qgJ3fP-275" style="edgeStyle=orthogonalEdgeStyle;rounded=0;orthogonalLoop=1;jettySize=auto;html=1;exitX=0.5;exitY=1;exitDx=0;exitDy=0;" edge="1" parent="VRv0_hLcXgZbu_qgJ3fP-235" source="VRv0_hLcXgZbu_qgJ3fP-270" target="VRv0_hLcXgZbu_qgJ3fP-274">
          <mxGeometry relative="1" as="geometry" />
        </mxCell>
        <mxCell id="VRv0_hLcXgZbu_qgJ3fP-276" value="increment i" style="rounded=0;whiteSpace=wrap;html=1;" vertex="1" parent="VRv0_hLcXgZbu_qgJ3fP-235">
          <mxGeometry y="1050" width="120" height="60" as="geometry" />
        </mxCell>
        <mxCell id="VRv0_hLcXgZbu_qgJ3fP-277" style="edgeStyle=orthogonalEdgeStyle;rounded=0;orthogonalLoop=1;jettySize=auto;html=1;exitX=0;exitY=0.5;exitDx=0;exitDy=0;entryX=0.5;entryY=1;entryDx=0;entryDy=0;" edge="1" parent="VRv0_hLcXgZbu_qgJ3fP-235" source="VRv0_hLcXgZbu_qgJ3fP-242" target="VRv0_hLcXgZbu_qgJ3fP-276">
          <mxGeometry relative="1" as="geometry" />
        </mxCell>
        <mxCell id="VRv0_hLcXgZbu_qgJ3fP-278" style="edgeStyle=orthogonalEdgeStyle;rounded=0;orthogonalLoop=1;jettySize=auto;html=1;exitX=0.5;exitY=1;exitDx=0;exitDy=0;entryX=0.5;entryY=0;entryDx=0;entryDy=0;" edge="1" parent="VRv0_hLcXgZbu_qgJ3fP-235" source="VRv0_hLcXgZbu_qgJ3fP-280" target="VRv0_hLcXgZbu_qgJ3fP-237">
          <mxGeometry relative="1" as="geometry" />
        </mxCell>
        <mxCell id="VRv0_hLcXgZbu_qgJ3fP-279" style="edgeStyle=orthogonalEdgeStyle;rounded=0;orthogonalLoop=1;jettySize=auto;html=1;exitX=1;exitY=0.5;exitDx=0;exitDy=0;entryX=1;entryY=0.5;entryDx=0;entryDy=0;" edge="1" parent="VRv0_hLcXgZbu_qgJ3fP-235" source="VRv0_hLcXgZbu_qgJ3fP-280" target="VRv0_hLcXgZbu_qgJ3fP-273">
          <mxGeometry relative="1" as="geometry" />
        </mxCell>
        <mxCell id="VRv0_hLcXgZbu_qgJ3fP-280" value="i &amp;lt; DECK (52)" style="rhombus;whiteSpace=wrap;html=1;" vertex="1" parent="VRv0_hLcXgZbu_qgJ3fP-235">
          <mxGeometry x="146" y="1040" width="150" height="80" as="geometry" />
        </mxCell>
        <mxCell id="VRv0_hLcXgZbu_qgJ3fP-281" style="edgeStyle=orthogonalEdgeStyle;rounded=0;orthogonalLoop=1;jettySize=auto;html=1;exitX=0.5;exitY=1;exitDx=0;exitDy=0;entryX=0.5;entryY=0;entryDx=0;entryDy=0;" edge="1" parent="VRv0_hLcXgZbu_qgJ3fP-235" source="VRv0_hLcXgZbu_qgJ3fP-274" target="VRv0_hLcXgZbu_qgJ3fP-280">
          <mxGeometry relative="1" as="geometry" />
        </mxCell>
        <mxCell id="VRv0_hLcXgZbu_qgJ3fP-282" style="edgeStyle=orthogonalEdgeStyle;rounded=0;orthogonalLoop=1;jettySize=auto;html=1;exitX=1;exitY=0.5;exitDx=0;exitDy=0;entryX=0;entryY=0.5;entryDx=0;entryDy=0;" edge="1" parent="VRv0_hLcXgZbu_qgJ3fP-235" source="VRv0_hLcXgZbu_qgJ3fP-276" target="VRv0_hLcXgZbu_qgJ3fP-280">
          <mxGeometry relative="1" as="geometry" />
        </mxCell>
        <mxCell id="VRv0_hLcXgZbu_qgJ3fP-283" value="linSrch" style="shape=process;whiteSpace=wrap;html=1;backgroundOutline=1;" vertex="1" parent="VRv0_hLcXgZbu_qgJ3fP-235">
          <mxGeometry x="161" y="1620" width="120" height="60" as="geometry" />
        </mxCell>
        <mxCell id="VRv0_hLcXgZbu_qgJ3fP-284" style="edgeStyle=orthogonalEdgeStyle;rounded=0;orthogonalLoop=1;jettySize=auto;html=1;exitX=0.5;exitY=1;exitDx=0;exitDy=0;entryX=0.5;entryY=0;entryDx=0;entryDy=0;" edge="1" parent="VRv0_hLcXgZbu_qgJ3fP-235" source="VRv0_hLcXgZbu_qgJ3fP-252" target="VRv0_hLcXgZbu_qgJ3fP-283">
          <mxGeometry relative="1" as="geometry" />
        </mxCell>
        <mxCell id="VRv0_hLcXgZbu_qgJ3fP-285" value="if&lt;br&gt;indx &amp;lt; 13" style="rhombus;whiteSpace=wrap;html=1;" vertex="1" parent="VRv0_hLcXgZbu_qgJ3fP-235">
          <mxGeometry x="146" y="1700" width="150" height="80" as="geometry" />
        </mxCell>
        <mxCell id="VRv0_hLcXgZbu_qgJ3fP-286" style="edgeStyle=orthogonalEdgeStyle;rounded=0;orthogonalLoop=1;jettySize=auto;html=1;exitX=0.5;exitY=1;exitDx=0;exitDy=0;entryX=0.5;entryY=0;entryDx=0;entryDy=0;" edge="1" parent="VRv0_hLcXgZbu_qgJ3fP-235" source="VRv0_hLcXgZbu_qgJ3fP-283" target="VRv0_hLcXgZbu_qgJ3fP-285">
          <mxGeometry relative="1" as="geometry" />
        </mxCell>
        <mxCell id="VRv0_hLcXgZbu_qgJ3fP-287" value="else if&lt;br&gt;indx &amp;gt; 12 &amp;amp;&amp;amp; &amp;lt; 26&lt;br&gt;&amp;nbsp;" style="rhombus;whiteSpace=wrap;html=1;" vertex="1" parent="VRv0_hLcXgZbu_qgJ3fP-235">
          <mxGeometry x="146" y="1800" width="150" height="80" as="geometry" />
        </mxCell>
        <mxCell id="VRv0_hLcXgZbu_qgJ3fP-288" style="edgeStyle=orthogonalEdgeStyle;rounded=0;orthogonalLoop=1;jettySize=auto;html=1;exitX=0.5;exitY=1;exitDx=0;exitDy=0;entryX=0.5;entryY=0;entryDx=0;entryDy=0;" edge="1" parent="VRv0_hLcXgZbu_qgJ3fP-235" source="VRv0_hLcXgZbu_qgJ3fP-285" target="VRv0_hLcXgZbu_qgJ3fP-287">
          <mxGeometry relative="1" as="geometry" />
        </mxCell>
        <mxCell id="VRv0_hLcXgZbu_qgJ3fP-289" value="else if&lt;br&gt;indx &amp;gt; 25 &amp;amp;&amp;amp; &amp;lt; 39&lt;br&gt;&amp;nbsp;" style="rhombus;whiteSpace=wrap;html=1;" vertex="1" parent="VRv0_hLcXgZbu_qgJ3fP-235">
          <mxGeometry x="146" y="1900" width="150" height="80" as="geometry" />
        </mxCell>
        <mxCell id="VRv0_hLcXgZbu_qgJ3fP-290" style="edgeStyle=orthogonalEdgeStyle;rounded=0;orthogonalLoop=1;jettySize=auto;html=1;exitX=0.5;exitY=1;exitDx=0;exitDy=0;entryX=0.5;entryY=0;entryDx=0;entryDy=0;" edge="1" parent="VRv0_hLcXgZbu_qgJ3fP-235" source="VRv0_hLcXgZbu_qgJ3fP-287" target="VRv0_hLcXgZbu_qgJ3fP-289">
          <mxGeometry relative="1" as="geometry" />
        </mxCell>
        <mxCell id="VRv0_hLcXgZbu_qgJ3fP-291" value="else&lt;br&gt;(indx &amp;gt; 38)" style="ellipse;whiteSpace=wrap;html=1;aspect=fixed;" vertex="1" parent="VRv0_hLcXgZbu_qgJ3fP-235">
          <mxGeometry x="181" y="2000" width="80" height="80" as="geometry" />
        </mxCell>
        <mxCell id="VRv0_hLcXgZbu_qgJ3fP-292" style="edgeStyle=orthogonalEdgeStyle;rounded=0;orthogonalLoop=1;jettySize=auto;html=1;exitX=0.5;exitY=1;exitDx=0;exitDy=0;entryX=0.5;entryY=0;entryDx=0;entryDy=0;" edge="1" parent="VRv0_hLcXgZbu_qgJ3fP-235" source="VRv0_hLcXgZbu_qgJ3fP-289" target="VRv0_hLcXgZbu_qgJ3fP-291">
          <mxGeometry relative="1" as="geometry" />
        </mxCell>
        <mxCell id="VRv0_hLcXgZbu_qgJ3fP-293" value="p[0].order = FIRST&lt;br&gt;p[1].order = SECOND&lt;br&gt;p[2].order = THIRD&lt;br&gt;p[3].order = FOURTH" style="rounded=0;whiteSpace=wrap;html=1;" vertex="1" parent="VRv0_hLcXgZbu_qgJ3fP-235">
          <mxGeometry x="320" y="1710" width="126" height="60" as="geometry" />
        </mxCell>
        <mxCell id="VRv0_hLcXgZbu_qgJ3fP-294" style="edgeStyle=orthogonalEdgeStyle;rounded=0;orthogonalLoop=1;jettySize=auto;html=1;exitX=1;exitY=0.5;exitDx=0;exitDy=0;entryX=0;entryY=0.5;entryDx=0;entryDy=0;" edge="1" parent="VRv0_hLcXgZbu_qgJ3fP-235" source="VRv0_hLcXgZbu_qgJ3fP-285" target="VRv0_hLcXgZbu_qgJ3fP-293">
          <mxGeometry relative="1" as="geometry" />
        </mxCell>
        <mxCell id="VRv0_hLcXgZbu_qgJ3fP-295" style="edgeStyle=orthogonalEdgeStyle;rounded=0;orthogonalLoop=1;jettySize=auto;html=1;exitX=1;exitY=0.5;exitDx=0;exitDy=0;" edge="1" parent="VRv0_hLcXgZbu_qgJ3fP-235" source="VRv0_hLcXgZbu_qgJ3fP-296">
          <mxGeometry relative="1" as="geometry">
            <mxPoint x="469.9999999999998" y="1840.3103448275865" as="targetPoint" />
          </mxGeometry>
        </mxCell>
        <mxCell id="VRv0_hLcXgZbu_qgJ3fP-296" value="p[1].order = FIRST&lt;br&gt;p[2].order = SECOND&lt;br&gt;p[3].order = THIRD&lt;br&gt;p[0].order = FOURTH" style="rounded=0;whiteSpace=wrap;html=1;" vertex="1" parent="VRv0_hLcXgZbu_qgJ3fP-235">
          <mxGeometry x="320" y="1810" width="126" height="60" as="geometry" />
        </mxCell>
        <mxCell id="VRv0_hLcXgZbu_qgJ3fP-297" style="edgeStyle=orthogonalEdgeStyle;rounded=0;orthogonalLoop=1;jettySize=auto;html=1;exitX=1;exitY=0.5;exitDx=0;exitDy=0;entryX=0;entryY=0.5;entryDx=0;entryDy=0;" edge="1" parent="VRv0_hLcXgZbu_qgJ3fP-235" source="VRv0_hLcXgZbu_qgJ3fP-287" target="VRv0_hLcXgZbu_qgJ3fP-296">
          <mxGeometry relative="1" as="geometry" />
        </mxCell>
        <mxCell id="VRv0_hLcXgZbu_qgJ3fP-298" style="edgeStyle=orthogonalEdgeStyle;rounded=0;orthogonalLoop=1;jettySize=auto;html=1;exitX=1;exitY=0.5;exitDx=0;exitDy=0;" edge="1" parent="VRv0_hLcXgZbu_qgJ3fP-235" source="VRv0_hLcXgZbu_qgJ3fP-299">
          <mxGeometry relative="1" as="geometry">
            <mxPoint x="469.9999999999998" y="1940.3103448275865" as="targetPoint" />
          </mxGeometry>
        </mxCell>
        <mxCell id="VRv0_hLcXgZbu_qgJ3fP-299" value="p[2].order = FIRST&lt;br&gt;p[3].order = SECOND&lt;br&gt;p[0].order = THIRD&lt;br&gt;p[1].order = FOURTH" style="rounded=0;whiteSpace=wrap;html=1;" vertex="1" parent="VRv0_hLcXgZbu_qgJ3fP-235">
          <mxGeometry x="320" y="1910" width="126" height="60" as="geometry" />
        </mxCell>
        <mxCell id="VRv0_hLcXgZbu_qgJ3fP-300" style="edgeStyle=orthogonalEdgeStyle;rounded=0;orthogonalLoop=1;jettySize=auto;html=1;exitX=1;exitY=0.5;exitDx=0;exitDy=0;entryX=0;entryY=0.5;entryDx=0;entryDy=0;" edge="1" parent="VRv0_hLcXgZbu_qgJ3fP-235" source="VRv0_hLcXgZbu_qgJ3fP-289" target="VRv0_hLcXgZbu_qgJ3fP-299">
          <mxGeometry relative="1" as="geometry" />
        </mxCell>
        <mxCell id="VRv0_hLcXgZbu_qgJ3fP-301" style="edgeStyle=orthogonalEdgeStyle;rounded=0;orthogonalLoop=1;jettySize=auto;html=1;exitX=1;exitY=0.5;exitDx=0;exitDy=0;" edge="1" parent="VRv0_hLcXgZbu_qgJ3fP-235" source="VRv0_hLcXgZbu_qgJ3fP-302">
          <mxGeometry relative="1" as="geometry">
            <mxPoint x="469.9999999999998" y="2040.3103448275865" as="targetPoint" />
          </mxGeometry>
        </mxCell>
        <mxCell id="VRv0_hLcXgZbu_qgJ3fP-302" value="p[3].order = FIRST&lt;br&gt;p[0].order = SECOND&lt;br&gt;p[1].order = THIRD&lt;br&gt;p[2].order = FOURTH" style="rounded=0;whiteSpace=wrap;html=1;" vertex="1" parent="VRv0_hLcXgZbu_qgJ3fP-235">
          <mxGeometry x="320" y="2010" width="126" height="60" as="geometry" />
        </mxCell>
        <mxCell id="VRv0_hLcXgZbu_qgJ3fP-303" style="edgeStyle=orthogonalEdgeStyle;rounded=0;orthogonalLoop=1;jettySize=auto;html=1;exitX=1;exitY=0.5;exitDx=0;exitDy=0;entryX=0;entryY=0.5;entryDx=0;entryDy=0;" edge="1" parent="VRv0_hLcXgZbu_qgJ3fP-235" source="VRv0_hLcXgZbu_qgJ3fP-291" target="VRv0_hLcXgZbu_qgJ3fP-302">
          <mxGeometry relative="1" as="geometry" />
        </mxCell>
        <mxCell id="VRv0_hLcXgZbu_qgJ3fP-304" value="initiate loop&lt;br&gt;i = 0" style="rounded=0;whiteSpace=wrap;html=1;" vertex="1" parent="VRv0_hLcXgZbu_qgJ3fP-235">
          <mxGeometry x="161" y="2105" width="120" height="60" as="geometry" />
        </mxCell>
        <mxCell id="VRv0_hLcXgZbu_qgJ3fP-305" style="edgeStyle=orthogonalEdgeStyle;rounded=0;orthogonalLoop=1;jettySize=auto;html=1;exitX=1;exitY=0.5;exitDx=0;exitDy=0;entryX=1;entryY=0.5;entryDx=0;entryDy=0;" edge="1" parent="VRv0_hLcXgZbu_qgJ3fP-235" source="VRv0_hLcXgZbu_qgJ3fP-293" target="VRv0_hLcXgZbu_qgJ3fP-304">
          <mxGeometry relative="1" as="geometry">
            <Array as="points">
              <mxPoint x="470" y="1740" />
              <mxPoint x="470" y="2135" />
            </Array>
          </mxGeometry>
        </mxCell>
        <mxCell id="VRv0_hLcXgZbu_qgJ3fP-306" value="increment i" style="rounded=0;whiteSpace=wrap;html=1;" vertex="1" parent="VRv0_hLcXgZbu_qgJ3fP-235">
          <mxGeometry y="2200" width="120" height="60" as="geometry" />
        </mxCell>
        <mxCell id="VRv0_hLcXgZbu_qgJ3fP-307" value="i &amp;lt; 4" style="rhombus;whiteSpace=wrap;html=1;" vertex="1" parent="VRv0_hLcXgZbu_qgJ3fP-235">
          <mxGeometry x="146" y="2190" width="150" height="80" as="geometry" />
        </mxCell>
        <mxCell id="VRv0_hLcXgZbu_qgJ3fP-308" style="edgeStyle=orthogonalEdgeStyle;rounded=0;orthogonalLoop=1;jettySize=auto;html=1;exitX=0.5;exitY=1;exitDx=0;exitDy=0;entryX=0.5;entryY=0;entryDx=0;entryDy=0;" edge="1" parent="VRv0_hLcXgZbu_qgJ3fP-235" source="VRv0_hLcXgZbu_qgJ3fP-304" target="VRv0_hLcXgZbu_qgJ3fP-307">
          <mxGeometry relative="1" as="geometry" />
        </mxCell>
        <mxCell id="VRv0_hLcXgZbu_qgJ3fP-309" style="edgeStyle=orthogonalEdgeStyle;rounded=0;orthogonalLoop=1;jettySize=auto;html=1;exitX=1;exitY=0.5;exitDx=0;exitDy=0;entryX=0;entryY=0.5;entryDx=0;entryDy=0;" edge="1" parent="VRv0_hLcXgZbu_qgJ3fP-235" source="VRv0_hLcXgZbu_qgJ3fP-306" target="VRv0_hLcXgZbu_qgJ3fP-307">
          <mxGeometry relative="1" as="geometry" />
        </mxCell>
        <mxCell id="VRv0_hLcXgZbu_qgJ3fP-310" style="edgeStyle=orthogonalEdgeStyle;rounded=0;orthogonalLoop=1;jettySize=auto;html=1;exitX=0;exitY=0.5;exitDx=0;exitDy=0;entryX=0.5;entryY=1;entryDx=0;entryDy=0;" edge="1" parent="VRv0_hLcXgZbu_qgJ3fP-235" source="VRv0_hLcXgZbu_qgJ3fP-311" target="VRv0_hLcXgZbu_qgJ3fP-306">
          <mxGeometry relative="1" as="geometry" />
        </mxCell>
        <mxCell id="VRv0_hLcXgZbu_qgJ3fP-311" value="p[ i ].match = false&lt;br&gt;p[ i ].tScore = 0" style="rounded=0;whiteSpace=wrap;html=1;" vertex="1" parent="VRv0_hLcXgZbu_qgJ3fP-235">
          <mxGeometry x="161" y="2290" width="120" height="60" as="geometry" />
        </mxCell>
        <mxCell id="VRv0_hLcXgZbu_qgJ3fP-312" style="edgeStyle=orthogonalEdgeStyle;rounded=0;orthogonalLoop=1;jettySize=auto;html=1;exitX=0.5;exitY=1;exitDx=0;exitDy=0;entryX=0.5;entryY=0;entryDx=0;entryDy=0;" edge="1" parent="VRv0_hLcXgZbu_qgJ3fP-235" source="VRv0_hLcXgZbu_qgJ3fP-307" target="VRv0_hLcXgZbu_qgJ3fP-311">
          <mxGeometry relative="1" as="geometry" />
        </mxCell>
        <mxCell id="VRv0_hLcXgZbu_qgJ3fP-313" value="delete [ ]deck" style="rounded=0;whiteSpace=wrap;html=1;" vertex="1" parent="VRv0_hLcXgZbu_qgJ3fP-235">
          <mxGeometry x="161" y="2370" width="120" height="60" as="geometry" />
        </mxCell>
        <mxCell id="VRv0_hLcXgZbu_qgJ3fP-314" style="edgeStyle=orthogonalEdgeStyle;rounded=0;orthogonalLoop=1;jettySize=auto;html=1;exitX=1;exitY=0.5;exitDx=0;exitDy=0;entryX=1;entryY=0.5;entryDx=0;entryDy=0;" edge="1" parent="VRv0_hLcXgZbu_qgJ3fP-235" source="VRv0_hLcXgZbu_qgJ3fP-307" target="VRv0_hLcXgZbu_qgJ3fP-313">
          <mxGeometry relative="1" as="geometry" />
        </mxCell>
        <mxCell id="VRv0_hLcXgZbu_qgJ3fP-315" value="End deal" style="ellipse;whiteSpace=wrap;html=1;" vertex="1" parent="VRv0_hLcXgZbu_qgJ3fP-235">
          <mxGeometry x="161" y="2450" width="120" height="40" as="geometry" />
        </mxCell>
        <mxCell id="VRv0_hLcXgZbu_qgJ3fP-316" style="edgeStyle=orthogonalEdgeStyle;rounded=0;orthogonalLoop=1;jettySize=auto;html=1;exitX=0.5;exitY=1;exitDx=0;exitDy=0;entryX=0.5;entryY=0;entryDx=0;entryDy=0;" edge="1" parent="VRv0_hLcXgZbu_qgJ3fP-235" source="VRv0_hLcXgZbu_qgJ3fP-313" target="VRv0_hLcXgZbu_qgJ3fP-315">
          <mxGeometry relative="1" as="geometry" />
        </mxCell>
        <mxCell id="VRv0_hLcXgZbu_qgJ3fP-317" value="Yes" style="text;html=1;strokeColor=none;fillColor=none;align=center;verticalAlign=middle;whiteSpace=wrap;rounded=0;" vertex="1" parent="VRv0_hLcXgZbu_qgJ3fP-235">
          <mxGeometry x="170" y="1110" width="60" height="30" as="geometry" />
        </mxCell>
        <mxCell id="VRv0_hLcXgZbu_qgJ3fP-318" value="No" style="text;html=1;strokeColor=none;fillColor=none;align=center;verticalAlign=middle;whiteSpace=wrap;rounded=0;" vertex="1" parent="VRv0_hLcXgZbu_qgJ3fP-235">
          <mxGeometry x="270" y="1050" width="60" height="30" as="geometry" />
        </mxCell>
        <mxCell id="VRv0_hLcXgZbu_qgJ3fP-319" value="Yes" style="text;html=1;strokeColor=none;fillColor=none;align=center;verticalAlign=middle;whiteSpace=wrap;rounded=0;" vertex="1" parent="VRv0_hLcXgZbu_qgJ3fP-235">
          <mxGeometry x="270" y="1710" width="60" height="30" as="geometry" />
        </mxCell>
        <mxCell id="VRv0_hLcXgZbu_qgJ3fP-320" value="No" style="text;html=1;strokeColor=none;fillColor=none;align=center;verticalAlign=middle;whiteSpace=wrap;rounded=0;" vertex="1" parent="VRv0_hLcXgZbu_qgJ3fP-235">
          <mxGeometry x="170" y="1770" width="60" height="30" as="geometry" />
        </mxCell>
        <mxCell id="VRv0_hLcXgZbu_qgJ3fP-321" value="No" style="text;html=1;strokeColor=none;fillColor=none;align=center;verticalAlign=middle;whiteSpace=wrap;rounded=0;" vertex="1" parent="VRv0_hLcXgZbu_qgJ3fP-235">
          <mxGeometry x="170" y="1870" width="60" height="30" as="geometry" />
        </mxCell>
        <mxCell id="VRv0_hLcXgZbu_qgJ3fP-322" value="Yes" style="text;html=1;strokeColor=none;fillColor=none;align=center;verticalAlign=middle;whiteSpace=wrap;rounded=0;" vertex="1" parent="VRv0_hLcXgZbu_qgJ3fP-235">
          <mxGeometry x="270" y="1810" width="60" height="30" as="geometry" />
        </mxCell>
        <mxCell id="VRv0_hLcXgZbu_qgJ3fP-323" value="No" style="text;html=1;strokeColor=none;fillColor=none;align=center;verticalAlign=middle;whiteSpace=wrap;rounded=0;" vertex="1" parent="VRv0_hLcXgZbu_qgJ3fP-235">
          <mxGeometry x="170" y="1970" width="60" height="30" as="geometry" />
        </mxCell>
        <mxCell id="VRv0_hLcXgZbu_qgJ3fP-324" value="Yes" style="text;html=1;strokeColor=none;fillColor=none;align=center;verticalAlign=middle;whiteSpace=wrap;rounded=0;" vertex="1" parent="VRv0_hLcXgZbu_qgJ3fP-235">
          <mxGeometry x="270" y="1910" width="60" height="30" as="geometry" />
        </mxCell>
        <mxCell id="VRv0_hLcXgZbu_qgJ3fP-325" value="Yes" style="text;html=1;strokeColor=none;fillColor=none;align=center;verticalAlign=middle;whiteSpace=wrap;rounded=0;" vertex="1" parent="VRv0_hLcXgZbu_qgJ3fP-235">
          <mxGeometry x="270" y="2010" width="60" height="30" as="geometry" />
        </mxCell>
        <mxCell id="VRv0_hLcXgZbu_qgJ3fP-326" value="Yes" style="text;html=1;strokeColor=none;fillColor=none;align=center;verticalAlign=middle;whiteSpace=wrap;rounded=0;" vertex="1" parent="VRv0_hLcXgZbu_qgJ3fP-235">
          <mxGeometry x="170" y="2260" width="60" height="30" as="geometry" />
        </mxCell>
        <mxCell id="VRv0_hLcXgZbu_qgJ3fP-327" value="No" style="text;html=1;strokeColor=none;fillColor=none;align=center;verticalAlign=middle;whiteSpace=wrap;rounded=0;" vertex="1" parent="VRv0_hLcXgZbu_qgJ3fP-235">
          <mxGeometry x="281" y="2200" width="60" height="30" as="geometry" />
        </mxCell>
      </root>
    </mxGraphModel>
  </diagram>
</mxfile>
